<svg width="300" height="300" viewBox="0 0 300 300" fill="none" xmlns="http://www.w3.org/2000/svg">
<path d="M49.14 69.564C49.165 69.6154 49.1831 69.6699 49.194 69.726L49.326 70.206C49.3926 70.4706 49.4747 70.7311 49.572 70.986C49.68 71.286 49.794 71.64 49.968 72.018L50.232 72.618L50.574 73.266C50.6914 73.5041 50.8236 73.7346 50.97 73.956C51.12 74.184 51.252 74.436 51.432 74.676C53.1175 77.1409 55.4777 79.0679 58.23 80.226C59.065 80.5756 59.9308 80.8467 60.816 81.036C61.7576 81.2228 62.7092 81.3551 63.666 81.432C65.628 81.624 67.752 81.732 69.786 82.548C71.8404 83.4588 73.662 84.8229 75.114 86.538C76.6508 88.1677 77.8932 90.0516 78.786 92.106C79.1896 93.0978 79.4365 94.1463 79.518 95.214C79.5879 96.234 79.5233 97.2588 79.326 98.262C78.9249 100.101 78.3833 101.906 77.706 103.662C77.1285 105.185 76.6985 106.761 76.422 108.366C76.1978 109.69 76.2488 111.046 76.572 112.35C76.8163 113.333 77.2594 114.256 77.874 115.062C78.2622 115.573 78.7375 116.012 79.278 116.358C79.644 116.592 79.878 116.682 79.878 116.694C79.6697 116.612 79.469 116.511 79.278 116.394C78.7248 116.056 78.237 115.621 77.838 115.11C77.2022 114.304 76.7423 113.374 76.488 112.38C76.1486 111.061 76.0853 109.686 76.302 108.342C76.5759 106.727 77.0018 105.142 77.574 103.608C78.2401 101.85 78.7736 100.045 79.17 98.208C79.3564 97.2196 79.4169 96.2116 79.35 95.208C79.2697 94.1621 79.0247 93.1355 78.624 92.166C77.7375 90.1329 76.5075 88.2677 74.988 86.652C73.5552 84.9605 71.7584 83.6149 69.732 82.716C67.746 81.906 65.64 81.798 63.672 81.6C62.7094 81.5153 61.752 81.3792 60.804 81.192C59.9013 81.0107 59.0175 80.7455 58.164 80.4C55.3884 79.2231 53.0172 77.2606 51.342 74.754C51.162 74.514 51.024 74.262 50.88 74.028C50.7376 73.8011 50.6074 73.5668 50.49 73.326L50.154 72.678L49.896 72.078C49.7479 71.7377 49.6197 71.3891 49.512 71.034C49.4219 70.7768 49.3477 70.5143 49.29 70.248C49.242 70.038 49.2 69.876 49.176 69.762C49.159 69.697 49.147 69.6308 49.14 69.564Z" fill="#455A64"/>
<path d="M61.338 63.204L61.47 63.324L61.842 63.684C62.004 63.846 62.184 64.062 62.442 64.284C62.7 64.506 62.898 64.836 63.138 65.196C63.7441 66.0598 64.2418 66.9948 64.62 67.98C65.1334 69.2822 65.4392 70.657 65.526 72.054C65.5668 72.8651 65.5367 73.6782 65.436 74.484C65.3133 75.357 65.1247 76.2194 64.872 77.064C64.374 78.816 63.672 80.616 63.144 82.59C62.8846 83.5966 62.7377 84.629 62.706 85.668C62.6826 86.7515 62.7934 87.8337 63.036 88.89C63.5425 91.13 64.5565 93.2238 66 95.01C67.4477 96.7809 69.2373 98.242 71.262 99.306C73.141 100.31 75.1654 101.015 77.262 101.394C79.266 101.766 81.21 101.862 83.01 102.138C84.6953 102.339 86.3321 102.835 87.846 103.602C90.0064 104.813 91.697 106.715 92.646 109.002C92.9031 109.617 93.1039 110.253 93.246 110.904C93.282 111.126 93.306 111.294 93.33 111.42C93.3341 111.478 93.3341 111.536 93.33 111.594C93.33 111.594 93.33 111.534 93.288 111.42C93.246 111.306 93.228 111.132 93.186 110.916C93.0379 110.273 92.8373 109.643 92.586 109.032C92.1652 108.075 91.614 107.18 90.948 106.374C90.0656 105.306 88.986 104.418 87.768 103.758C86.2633 103.007 84.6388 102.526 82.968 102.336C81.168 102.066 79.23 101.976 77.208 101.61C75.0919 101.226 73.0478 100.518 71.148 99.51C69.0985 98.4343 67.2865 96.9569 65.82 95.166C64.3674 93.3604 63.3419 91.2498 62.82 88.992C62.5826 87.9187 62.4738 86.821 62.496 85.722C62.5285 84.6688 62.6774 83.6224 62.94 82.602C63.45 80.61 64.188 78.81 64.692 77.07C64.956 76.2364 65.1566 75.3839 65.292 74.52C65.3991 73.7248 65.4332 72.9214 65.394 72.12C65.2561 69.6806 64.4577 67.3246 63.084 65.304C62.85 64.938 62.604 64.65 62.406 64.38C62.208 64.11 62.01 63.912 61.854 63.78L61.5 63.402C61.4401 63.3411 61.3859 63.2748 61.338 63.204Z" fill="#455A64"/>
<path d="M91.152 106.2C91.0104 106.357 90.8536 106.5 90.684 106.626C90.372 106.896 89.91 107.268 89.328 107.712C87.8184 108.878 86.2482 109.964 84.624 110.964C82.9984 111.964 81.3221 112.879 79.602 113.706C78.942 114.024 78.402 114.27 78.03 114.426C77.8388 114.523 77.6376 114.6 77.43 114.654C77.6087 114.541 77.7952 114.441 77.988 114.354L79.536 113.58C80.838 112.92 82.614 111.96 84.51 110.79C86.406 109.62 88.062 108.462 89.238 107.598L90.624 106.566C90.7902 106.43 90.9667 106.308 91.152 106.2Z" fill="#455A64"/>
<path d="M87.93 103.68C87.7819 103.79 87.6231 103.884 87.456 103.962L86.148 104.67C85.044 105.27 83.532 106.122 81.894 107.124C80.256 108.126 78.816 109.098 77.784 109.812L76.584 110.664C76.4374 110.773 76.283 110.871 76.122 110.958C76.2484 110.825 76.387 110.705 76.536 110.598C76.812 110.376 77.22 110.07 77.736 109.698C78.75 108.948 80.19 107.964 81.828 106.956C83.466 105.948 84.996 105.114 86.118 104.556C86.682 104.268 87.138 104.046 87.462 103.902C87.6118 103.815 87.7683 103.741 87.93 103.68Z" fill="#455A64"/>
<path d="M83.31 102.708C83.0203 102.961 82.7092 103.188 82.38 103.386C81.78 103.776 80.97 104.304 80.046 104.862C79.122 105.42 78.276 105.894 77.646 106.23C77.3173 106.426 76.9719 106.593 76.614 106.728C76.917 106.502 77.2381 106.301 77.574 106.128L79.938 104.712L82.302 103.29C82.6195 103.066 82.9569 102.871 83.31 102.708Z" fill="#455A64"/>
<path d="M79.002 97.608C78.7882 97.8042 78.5527 97.9753 78.3 98.118L76.566 99.282L74.844 100.482C74.6175 100.662 74.3721 100.817 74.112 100.944C74.2992 100.715 74.5172 100.513 74.76 100.344C75.18 100.008 75.774 99.57 76.452 99.108C77.13 98.646 77.76 98.256 78.252 97.992C78.4845 97.8324 78.7366 97.7034 79.002 97.608Z" fill="#455A64"/>
<path d="M78.66 93.06C78.66 93.09 78.15 93.366 77.328 93.84C76.506 94.314 75.384 95.004 74.202 95.832C73.02 96.66 71.988 97.488 71.262 98.1C70.8794 98.4486 70.4788 98.7771 70.062 99.084C70.1438 98.9714 70.2362 98.8669 70.338 98.772C70.524 98.58 70.806 98.316 71.16 97.992C73.0082 96.3233 75.0534 94.8866 77.25 93.714C77.67 93.492 78.018 93.324 78.258 93.21C78.3848 93.1425 78.52 93.092 78.66 93.06Z" fill="#455A64"/>
<path d="M76.41 89.532C76.44 89.58 74.334 91.098 71.706 92.934C69.078 94.77 66.906 96.21 66.906 96.168C66.906 96.126 68.976 94.596 71.604 92.766C74.232 90.936 76.374 89.484 76.41 89.532Z" fill="#455A64"/>
<path d="M74.616 85.554C74.4912 85.6684 74.3544 85.7689 74.208 85.854C73.908 86.058 73.53 86.316 73.074 86.616C72.114 87.258 70.794 88.158 69.36 89.178C67.926 90.198 66.654 91.158 65.76 91.854L64.668 92.682C64.5402 92.7902 64.4015 92.8847 64.254 92.964C64.3621 92.8342 64.4849 92.7174 64.62 92.616C64.86 92.406 65.22 92.106 65.67 91.74C66.57 91.014 67.83 90.036 69.27 89.016C70.71 87.996 72.042 87.108 73.02 86.496C73.512 86.19 73.914 85.95 74.22 85.788C74.3436 85.6966 74.4763 85.6182 74.616 85.554Z" fill="#455A64"/>
<path d="M70.914 83.352C70.95 83.394 69.162 84.69 66.93 86.244C64.698 87.798 62.856 89.01 62.82 88.968C62.784 88.926 64.578 87.624 66.81 86.076C69.042 84.528 70.884 83.304 70.914 83.352Z" fill="#455A64"/>
<path d="M67.032 81.132C66.3962 81.7757 65.7101 82.3676 64.98 82.902C64.2947 83.4928 63.5667 84.0323 62.802 84.516C63.4403 83.8659 64.1262 83.2642 64.854 82.716C65.5403 82.1355 66.2683 81.6061 67.032 81.132Z" fill="#455A64"/>
<path d="M64.416 75.558C64.1488 75.8537 63.8557 76.1247 63.54 76.368C62.982 76.842 62.19 77.484 61.29 78.168C60.39 78.852 59.556 79.416 58.938 79.818C58.6165 80.0511 58.2729 80.2521 57.912 80.418C58.209 80.1521 58.5259 79.9094 58.86 79.692C59.46 79.26 60.276 78.666 61.17 78C62.064 77.334 62.868 76.71 63.45 76.26C63.7527 76.0006 64.0758 75.7658 64.416 75.558Z" fill="#455A64"/>
<path d="M65.544 71.766C65.4215 71.8839 65.2867 71.9885 65.142 72.078C64.884 72.27 64.494 72.534 64.014 72.852C63.048 73.494 61.692 74.352 60.162 75.252C58.632 76.152 57.21 76.884 56.172 77.4C55.656 77.658 55.23 77.862 54.936 78C54.7878 78.0815 54.6308 78.1459 54.468 78.192C54.6037 78.0928 54.7483 78.0064 54.9 77.934L56.1 77.28C57.12 76.734 58.5 75.966 60.054 75.078C61.608 74.19 62.946 73.362 63.93 72.75L65.094 72.03C65.2334 71.925 65.3844 71.8364 65.544 71.766Z" fill="#455A64"/>
<path d="M63.744 67.716C63.6075 67.838 63.461 67.9484 63.306 68.046C63.018 68.25 62.598 68.538 62.07 68.892C61.02 69.588 59.556 70.536 57.918 71.55C56.28 72.564 54.786 73.452 53.718 74.076C53.172 74.388 52.728 74.64 52.416 74.808C52.2586 74.9009 52.0941 74.9811 51.924 75.048C52.0638 74.93 52.2145 74.8256 52.374 74.736L53.646 73.95L57.846 71.376L62.046 68.772L63.318 67.98C63.4513 67.8787 63.594 67.7903 63.744 67.716Z" fill="#455A64"/>
<path d="M221.616 187.326C221.586 187.356 221.142 186.912 220.278 186.174C219.846 185.808 219.312 185.364 218.664 184.89C217.933 184.353 217.163 183.872 216.36 183.45C215.897 183.212 215.415 183.011 214.92 182.85C214.401 182.66 213.853 182.563 213.3 182.562C213.027 182.562 212.758 182.625 212.514 182.748C212.275 182.872 212.085 183.073 211.974 183.318C211.858 183.587 211.802 183.878 211.812 184.17C211.817 184.485 211.857 184.799 211.932 185.106C212.093 185.756 212.326 186.386 212.628 186.984C212.944 187.619 213.299 188.234 213.69 188.826C215.37 191.308 217.475 193.475 219.906 195.228C220.481 195.639 221.082 196.012 221.706 196.344C222.295 196.666 222.919 196.92 223.566 197.1C223.869 197.184 224.181 197.235 224.496 197.25C224.787 197.267 225.077 197.22 225.348 197.112C225.602 197.011 225.813 196.827 225.948 196.59C226.076 196.349 226.148 196.083 226.158 195.81C226.176 195.256 226.094 194.703 225.918 194.178C225.755 193.678 225.554 193.19 225.318 192.72C224.918 191.906 224.458 191.122 223.944 190.374C223.488 189.714 223.068 189.174 222.708 188.724C222 187.842 221.568 187.38 221.598 187.35C221.628 187.32 221.73 187.44 221.952 187.65C222.174 187.86 222.48 188.172 222.858 188.598C223.323 189.114 223.761 189.652 224.172 190.212C224.722 190.956 225.211 191.742 225.636 192.564C225.88 193.049 226.091 193.55 226.266 194.064C226.467 194.642 226.563 195.252 226.548 195.864C226.542 196.201 226.455 196.532 226.296 196.83C226.124 197.149 225.849 197.4 225.516 197.544C225.186 197.682 224.829 197.745 224.472 197.73C224.121 197.719 223.773 197.669 223.434 197.58C222.753 197.394 222.095 197.133 221.472 196.8C220.821 196.443 220.196 196.042 219.6 195.6C217.107 193.822 214.959 191.606 213.258 189.06C212.854 188.453 212.491 187.82 212.172 187.164C211.861 186.531 211.621 185.864 211.458 185.178C211.376 184.838 211.336 184.49 211.338 184.14C211.328 183.782 211.402 183.427 211.554 183.102C211.708 182.773 211.968 182.504 212.292 182.34C212.595 182.192 212.927 182.116 213.264 182.118C213.867 182.124 214.465 182.238 215.028 182.454C215.536 182.643 216.03 182.869 216.504 183.132C217.312 183.579 218.082 184.091 218.808 184.662C219.45 185.166 219.972 185.628 220.386 186.024C220.8 186.42 221.106 186.738 221.304 186.96C221.502 187.182 221.628 187.314 221.616 187.326Z" fill="#455A64"/>
<path d="M215.862 188.766C215.898 188.766 215.724 189.366 215.496 190.434C215.382 190.974 215.256 191.634 215.154 192.402C215.038 193.271 214.99 194.148 215.01 195.024C215.022 195.529 215.074 196.033 215.166 196.53C215.253 197.058 215.434 197.566 215.7 198.03C215.836 198.257 216.02 198.452 216.24 198.6C216.459 198.742 216.717 198.813 216.978 198.804C217.264 198.796 217.544 198.726 217.8 198.6C218.072 198.461 218.325 198.29 218.556 198.09C219.047 197.665 219.487 197.186 219.87 196.662C220.275 196.109 220.641 195.53 220.968 194.928C222.331 192.37 223.216 189.584 223.578 186.708C223.656 186.029 223.69 185.345 223.68 184.662C223.67 184.013 223.588 183.367 223.434 182.736C223.356 182.442 223.247 182.156 223.11 181.884C222.983 181.632 222.803 181.411 222.582 181.236C222.376 181.075 222.124 180.982 221.862 180.972C221.598 180.967 221.335 181.02 221.094 181.128C220.61 181.353 220.169 181.662 219.792 182.04C219.431 182.395 219.098 182.779 218.796 183.186C218.266 183.885 217.792 184.625 217.38 185.4C217.02 186.084 216.744 186.696 216.528 187.2C216.096 188.214 215.898 188.79 215.862 188.778C215.867 188.628 215.898 188.48 215.952 188.34C216.03 188.058 216.156 187.65 216.342 187.14C216.528 186.63 216.786 185.994 217.128 185.286C217.516 184.479 217.972 183.706 218.49 182.976C218.792 182.547 219.131 182.145 219.504 181.776C219.907 181.351 220.385 181.003 220.914 180.75C221.21 180.616 221.531 180.549 221.856 180.552C222.207 180.561 222.547 180.678 222.828 180.888C223.101 181.1 223.326 181.368 223.488 181.674C223.648 181.975 223.773 182.293 223.86 182.622C224.031 183.285 224.123 183.966 224.136 184.65C224.157 185.357 224.127 186.065 224.046 186.768C223.696 189.712 222.79 192.562 221.376 195.168C221.037 195.794 220.654 196.396 220.23 196.968C219.824 197.519 219.355 198.021 218.832 198.462C218.572 198.68 218.289 198.867 217.986 199.02C217.677 199.18 217.337 199.27 216.99 199.284C216.641 199.292 216.298 199.194 216.006 199.002C215.738 198.815 215.513 198.574 215.346 198.294C215.062 197.782 214.873 197.223 214.788 196.644C214.698 196.127 214.654 195.603 214.656 195.078C214.652 194.181 214.726 193.286 214.878 192.402C214.986 191.739 215.128 191.082 215.304 190.434C215.448 189.9 215.586 189.492 215.682 189.234C215.713 189.068 215.774 188.91 215.862 188.766Z" fill="#455A64"/>
<path d="M217.83 186C217.83 186.042 217.23 186.198 216.216 186.57C215.7 186.756 215.076 186.996 214.362 187.314C213.562 187.673 212.792 188.094 212.058 188.574C211.632 188.847 211.231 189.156 210.858 189.498C210.454 189.847 210.119 190.269 209.868 190.74C209.745 190.974 209.676 191.232 209.664 191.496C209.659 191.759 209.736 192.017 209.886 192.234C210.041 192.465 210.246 192.657 210.486 192.798C210.747 192.954 211.025 193.081 211.314 193.176C211.935 193.366 212.575 193.487 213.222 193.536C213.905 193.581 214.591 193.581 215.274 193.536C216.718 193.451 218.151 193.228 219.552 192.87C220.956 192.52 222.324 192.038 223.638 191.43C224.259 191.139 224.86 190.808 225.438 190.44C225.985 190.1 226.491 189.698 226.944 189.24C227.157 189.022 227.343 188.778 227.496 188.514C227.645 188.276 227.739 188.007 227.772 187.728C227.799 187.469 227.747 187.207 227.622 186.978C227.487 186.742 227.303 186.537 227.082 186.378C226.634 186.092 226.138 185.889 225.618 185.778C225.127 185.657 224.628 185.575 224.124 185.532C223.249 185.463 222.371 185.463 221.496 185.532C220.722 185.592 220.056 185.676 219.51 185.754C218.43 185.922 217.836 186.06 217.824 186.018C217.956 185.947 218.097 185.896 218.244 185.868C218.52 185.784 218.934 185.676 219.48 185.562C220.026 185.448 220.68 185.34 221.472 185.256C222.363 185.161 223.26 185.141 224.154 185.196C224.678 185.227 225.197 185.304 225.708 185.424C226.283 185.54 226.831 185.764 227.322 186.084C227.593 186.263 227.821 186.501 227.988 186.78C228.166 187.082 228.244 187.433 228.21 187.782C228.179 188.128 228.071 188.462 227.892 188.76C227.723 189.052 227.522 189.324 227.292 189.57C226.817 190.066 226.285 190.505 225.708 190.878C225.116 191.265 224.499 191.612 223.86 191.916C222.511 192.544 221.105 193.041 219.66 193.398C218.227 193.763 216.762 193.986 215.286 194.064C214.58 194.103 213.872 194.091 213.168 194.028C212.484 193.974 211.81 193.839 211.158 193.626C210.834 193.521 210.524 193.378 210.234 193.2C209.939 193.019 209.685 192.778 209.49 192.492C209.3 192.2 209.203 191.857 209.214 191.508C209.229 191.181 209.317 190.861 209.472 190.572C209.755 190.061 210.129 189.605 210.576 189.228C210.972 188.883 211.396 188.57 211.842 188.292C212.607 187.826 213.41 187.424 214.242 187.092C214.864 186.836 215.499 186.612 216.144 186.42C216.672 186.264 217.092 186.162 217.374 186.102C217.52 186.044 217.674 186.009 217.83 186Z" fill="#455A64"/>
<path d="M220.854 189.462C220.931 189.771 220.915 190.095 220.808 190.394C220.701 190.694 220.507 190.955 220.251 191.144C219.996 191.333 219.69 191.443 219.372 191.458C219.055 191.474 218.739 191.394 218.467 191.231C218.194 191.067 217.976 190.826 217.84 190.539C217.704 190.251 217.657 189.93 217.704 189.615C217.75 189.301 217.889 189.007 218.103 188.772C218.317 188.536 218.595 188.369 218.904 188.292C219.318 188.19 219.755 188.256 220.12 188.475C220.485 188.694 220.749 189.049 220.854 189.462Z" fill="#455A64"/>
<path d="M253.632 161.916L253.452 161.832L252.93 161.568L250.92 160.524L243.534 156.642H243.6L220.848 165.336L220.644 165.414L220.704 165.204L221.4 162.69C222.99 156.954 224.496 151.524 225.816 146.748V146.712L238.416 137.268L242.016 134.604L242.97 133.902L243.216 133.728C243.268 133.684 243.298 133.666 243.306 133.674L243.228 133.74L242.988 133.932L242.052 134.652L238.5 137.358L225.936 146.868L225.972 146.814C224.652 151.614 223.158 157.014 221.574 162.768C221.334 163.626 221.1 164.484 220.878 165.282L220.734 165.15L243.534 156.516H243.57L250.92 160.458L252.906 161.532L253.422 161.82L253.632 161.916Z" fill="#426DDA"/>
<path d="M223.77 165.06L222.408 165.462L221.97 166.812L221.166 165.642H219.744L220.608 164.514L220.17 163.164L221.508 163.638L222.654 162.804L222.618 164.226L223.77 165.06Z" fill="#426DDA"/>
<path d="M227.7 146.31L226.842 146.622L226.608 147.51L226.044 146.79L225.126 146.844L225.642 146.082L225.306 145.23L226.188 145.482L226.896 144.9L226.926 145.818L227.7 146.31Z" fill="#426DDA"/>
<path d="M244.926 133.092L244.302 134.034L244.716 135.078L243.63 134.772L242.766 135.492L242.718 134.364L241.77 133.764L242.826 133.374L243.102 132.282L243.804 133.164L244.926 133.092Z" fill="#426DDA"/>
<path d="M255.012 160.728L254.382 161.67L254.802 162.714L253.716 162.408L252.846 163.128L252.804 162L251.85 161.4L252.906 161.01L253.188 159.918L253.884 160.8L255.012 160.728Z" fill="#426DDA"/>
<path d="M244.428 156.102L244.026 156.702L244.296 157.368L243.6 157.17L243.048 157.632L243.024 156.912L242.412 156.528L243.09 156.276L243.264 155.58L243.714 156.15L244.428 156.102Z" fill="#426DDA"/>
<path d="M185.682 60.7368C186.707 54.4576 182.447 48.5364 176.168 47.5115C169.889 46.4866 163.968 50.7461 162.943 57.0253C161.918 63.3046 166.177 69.2257 172.457 70.2506C178.736 71.2755 184.657 67.016 185.682 60.7368Z" fill="#426DDA"/>
<g opacity="0.3">
<path d="M172.8 62.484C172.8 62.8554 172.69 63.2185 172.484 63.5274C172.277 63.8362 171.984 64.0769 171.641 64.219C171.298 64.3612 170.92 64.3984 170.556 64.3259C170.191 64.2535 169.857 64.0746 169.594 63.8119C169.331 63.5493 169.153 63.2147 169.08 62.8504C169.008 62.4861 169.045 62.1085 169.187 61.7653C169.329 61.4222 169.57 61.1289 169.879 60.9225C170.187 60.7161 170.551 60.606 170.922 60.606C171.42 60.606 171.898 60.8039 172.25 61.1561C172.602 61.5082 172.8 61.9859 172.8 62.484Z" fill="white"/>
</g>
<g opacity="0.3">
<path d="M170.16 57.06C170.16 57.276 170.096 57.4871 169.976 57.6667C169.856 57.8463 169.685 57.9862 169.486 58.0689C169.286 58.1515 169.067 58.1732 168.855 58.131C168.643 58.0889 168.449 57.9849 168.296 57.8322C168.143 57.6794 168.039 57.4849 167.997 57.273C167.955 57.0612 167.976 56.8417 168.059 56.6421C168.142 56.4426 168.282 56.272 168.461 56.152C168.641 56.032 168.852 55.968 169.068 55.968C169.358 55.968 169.635 56.0831 169.84 56.2878C170.045 56.4926 170.16 56.7704 170.16 57.06Z" fill="white"/>
</g>
<path d="M163.146 61.692C163.2 61.89 153.288 71.4 155.844 73.428C158.4 75.456 169.146 70.254 178.308 62.856C187.47 55.458 195.834 46.47 193.542 44.094C191.25 41.718 179.808 48.756 179.808 48.756L181.2 49.626C181.2 49.626 188.118 45.186 190.308 46.908C192.498 48.63 186.258 55.368 177.45 61.8C168.642 68.232 160.128 72.744 158.808 70.98C157.488 69.216 163.722 63.342 163.722 63.342L163.146 61.692Z" fill="#426DDA"/>
<g opacity="0.3">
<path d="M163.146 61.692C163.2 61.89 153.288 71.4 155.844 73.428C158.4 75.456 169.146 70.254 178.308 62.856C187.47 55.458 195.834 46.47 193.542 44.094C191.25 41.718 179.808 48.756 179.808 48.756L181.2 49.626C181.2 49.626 188.118 45.186 190.308 46.908C192.498 48.63 186.258 55.368 177.45 61.8C168.642 68.232 160.128 72.744 158.808 70.98C157.488 69.216 163.722 63.342 163.722 63.342L163.146 61.692Z" fill="black"/>
</g>
<g opacity="0.3">
<path d="M168 50.772C168.09 50.886 167.31 51.546 166.428 52.878C165.256 54.5853 164.609 56.5984 164.568 58.669C164.526 60.7395 165.091 62.777 166.194 64.53C167.028 65.892 167.778 66.588 167.682 66.696C167.586 66.804 166.698 66.24 165.672 64.896C165.078 64.0964 164.607 63.2127 164.274 62.274C163.423 59.94 163.474 57.3722 164.418 55.074C164.787 54.1498 165.293 53.2862 165.918 52.512C166.974 51.192 167.922 50.694 168 50.772Z" fill="white"/>
</g>
<path d="M191.748 69.042C191.779 67.7191 192.202 66.4352 192.963 65.3527C193.724 64.2701 194.789 63.4375 196.023 62.9603C197.257 62.483 198.605 62.3824 199.897 62.6713C201.188 62.9602 202.365 63.6255 203.278 64.5832C204.191 65.5408 204.8 66.7478 205.027 68.0514C205.254 69.355 205.089 70.6967 204.554 71.9068C204.019 73.1169 203.136 74.141 202.019 74.8497C200.901 75.5583 199.599 75.9197 198.276 75.888C196.503 75.8455 194.819 75.1005 193.594 73.8167C192.37 72.5329 191.706 70.8154 191.748 69.042Z" fill="#426DDA"/>
<g opacity="0.4">
<path d="M200.616 66.642C200.621 66.4259 200.69 66.216 200.814 66.039C200.938 65.8621 201.112 65.726 201.314 65.648C201.515 65.57 201.736 65.5536 201.947 65.6009C202.158 65.6482 202.35 65.757 202.499 65.9136C202.648 66.0703 202.747 66.2676 202.784 66.4806C202.821 66.6937 202.793 66.9129 202.705 67.1104C202.617 67.3079 202.473 67.4749 202.29 67.5902C202.107 67.7055 201.894 67.7639 201.678 67.758C201.535 67.7549 201.394 67.7235 201.263 67.6657C201.132 67.6078 201.014 67.5246 200.915 67.4209C200.816 67.3172 200.739 67.195 200.688 67.0613C200.636 66.9276 200.612 66.7851 200.616 66.642Z" fill="black"/>
</g>
<g opacity="0.4">
<path d="M202.8 69.186C202.804 69.0596 202.845 68.9371 202.919 68.8343C202.993 68.7315 203.095 68.6531 203.214 68.6089C203.332 68.5648 203.461 68.5571 203.584 68.5867C203.707 68.6162 203.819 68.6818 203.904 68.7751C203.99 68.8683 204.046 68.9849 204.065 69.11C204.083 69.235 204.065 69.3629 204.011 69.4772C203.956 69.5916 203.869 69.6872 203.761 69.7518C203.652 69.8164 203.526 69.8471 203.4 69.84C203.235 69.8292 203.081 69.7552 202.969 69.6334C202.857 69.5116 202.797 69.3513 202.8 69.186Z" fill="black"/>
</g>
<g opacity="0.4">
<path d="M201.942 71.136C202.005 71.1376 202.064 71.1635 202.108 71.2084C202.152 71.2532 202.176 71.3134 202.176 71.376C202.175 71.4067 202.168 71.437 202.156 71.4651C202.143 71.4932 202.126 71.5186 202.103 71.5397C202.081 71.5609 202.055 71.5775 202.026 71.5885C201.997 71.5995 201.967 71.6048 201.936 71.604C201.905 71.604 201.874 71.5978 201.846 71.5856C201.817 71.5734 201.792 71.5555 201.77 71.533C201.749 71.5106 201.733 71.484 201.722 71.4549C201.711 71.4259 201.706 71.3949 201.708 71.364C201.71 71.303 201.735 71.245 201.779 71.2024C201.822 71.1598 201.881 71.136 201.942 71.136Z" fill="black"/>
</g>
<path d="M219.372 118.95C219.312 118.95 219.27 110.478 219.27 100.032C219.27 89.586 219.312 81.114 219.372 81.114C219.432 81.114 219.474 89.58 219.474 100.032C219.474 110.484 219.426 118.95 219.372 118.95Z" fill="#263238"/>
<path d="M220.5 81.438C220.018 80.7392 219.588 80.0051 219.216 79.242H219.396V79.29C219.086 80.101 218.719 80.889 218.298 81.648C218.535 80.8123 218.84 79.9976 219.21 79.212V79.164L219.294 78.972L219.39 79.152C219.821 79.8831 220.192 80.6475 220.5 81.438Z" fill="#263238"/>
<path d="M219.162 76.644C219.126 76.686 218.814 76.482 218.562 76.104C218.31 75.726 218.25 75.36 218.304 75.348C218.358 75.336 218.502 75.648 218.73 75.996C218.958 76.344 219.198 76.602 219.162 76.644Z" fill="#263238"/>
<path d="M218.568 77.736C218.682 77.2709 218.843 76.8185 219.048 76.386C219.185 75.9277 219.37 75.4852 219.6 75.066C219.563 75.5483 219.439 76.02 219.234 76.458C219.092 76.9213 218.867 77.3546 218.568 77.736Z" fill="#263238"/>
<path d="M216.66 86.094C216.797 85.7126 216.913 85.324 217.008 84.93C217.029 84.5303 217.029 84.1297 217.008 83.73C217.221 84.1093 217.283 84.5549 217.182 84.978C217.153 85.402 216.967 85.7998 216.66 86.094Z" fill="#263238"/>
<path d="M217.032 84.516C217.032 84.516 216.984 84.678 216.744 84.738C216.602 84.7682 216.454 84.7424 216.33 84.666C216.257 84.6135 216.197 84.5452 216.153 84.4661C216.11 84.3871 216.086 84.2994 216.081 84.2095C216.076 84.1196 216.092 84.0299 216.127 83.9469C216.162 83.8638 216.215 83.7897 216.282 83.73C216.4 83.6458 216.545 83.6074 216.69 83.622C216.936 83.622 217.02 83.802 216.996 83.814C216.972 83.826 216.87 83.754 216.684 83.766C216.628 83.765 216.573 83.7757 216.521 83.7974C216.469 83.8191 216.423 83.8513 216.385 83.8919C216.346 83.9326 216.317 83.9808 216.298 84.0335C216.279 84.0862 216.272 84.1422 216.276 84.198C216.278 84.254 216.292 84.309 216.316 84.3596C216.34 84.4102 216.374 84.4554 216.416 84.4924C216.458 84.5294 216.507 84.5575 216.561 84.575C216.614 84.5924 216.67 84.5989 216.726 84.594C216.912 84.6 217.008 84.492 217.032 84.516Z" fill="#263238"/>
<path d="M248.826 116.262C248.826 116.316 241.578 116.364 232.626 116.364C223.674 116.364 216.426 116.316 216.426 116.262C216.426 116.208 223.668 116.16 232.626 116.16C241.584 116.16 248.826 116.208 248.826 116.262Z" fill="#263238"/>
<path d="M249.156 116.22C248.686 116.147 248.229 116.005 247.8 115.8C247.354 115.66 246.93 115.458 246.54 115.2C247.003 115.275 247.452 115.419 247.872 115.626C248.327 115.76 248.759 115.961 249.156 116.22Z" fill="#263238"/>
<path d="M249.51 116.34C248.826 116.729 248.079 116.991 247.302 117.114C247.632 116.898 247.995 116.736 248.376 116.634C248.734 116.471 249.118 116.371 249.51 116.34Z" fill="#263238"/>
<path d="M217.848 117.288C217.96 117.365 218.055 117.465 218.128 117.58C218.2 117.696 218.248 117.825 218.268 117.96C218.34 118.254 218.317 118.562 218.202 118.842C218.136 119.015 218.024 119.166 217.878 119.28C217.789 119.338 217.684 119.369 217.578 119.369C217.472 119.369 217.367 119.338 217.278 119.28C217.125 119.167 217.003 119.018 216.921 118.846C216.839 118.675 216.801 118.486 216.81 118.296C216.806 118.143 216.836 117.99 216.898 117.85C216.96 117.71 217.053 117.586 217.17 117.486C217.248 117.419 217.338 117.368 217.436 117.336C217.534 117.304 217.637 117.292 217.74 117.3C217.884 117.3 217.95 117.366 217.944 117.372C217.938 117.378 217.866 117.372 217.74 117.372C217.562 117.388 217.395 117.464 217.266 117.588C217.173 117.678 217.101 117.786 217.055 117.906C217.008 118.027 216.988 118.155 216.996 118.284C216.992 118.44 217.025 118.596 217.092 118.737C217.158 118.879 217.257 119.003 217.38 119.1C217.439 119.138 217.508 119.158 217.578 119.158C217.648 119.158 217.717 119.138 217.776 119.1C217.895 119.009 217.988 118.89 218.046 118.752C218.151 118.506 218.185 118.236 218.142 117.972C218.079 117.73 217.98 117.5 217.848 117.288Z" fill="#263238"/>
<path d="M244.2 117.714C244.2 117.714 244.314 117.648 244.47 117.78C244.516 117.82 244.552 117.87 244.576 117.926C244.6 117.982 244.611 118.043 244.608 118.104C244.593 118.26 244.525 118.406 244.416 118.518C244.188 118.77 243.768 118.866 243.576 119.172C243.532 119.252 243.509 119.342 243.509 119.433C243.509 119.524 243.532 119.614 243.576 119.694C243.626 119.778 243.699 119.845 243.786 119.889C243.873 119.933 243.971 119.95 244.068 119.94C244.166 119.932 244.259 119.894 244.335 119.832C244.411 119.77 244.466 119.686 244.494 119.592C244.523 119.505 244.529 119.411 244.511 119.321C244.493 119.23 244.452 119.146 244.392 119.076C244.271 118.936 244.124 118.82 243.96 118.734C243.871 118.701 243.79 118.648 243.723 118.579C243.657 118.511 243.607 118.428 243.576 118.338C243.558 118.26 243.558 118.179 243.576 118.101C243.594 118.024 243.628 117.951 243.678 117.888C243.749 117.798 243.842 117.728 243.948 117.684C244.122 117.624 244.224 117.636 244.23 117.648C244.236 117.66 244.134 117.648 243.984 117.756C243.897 117.803 243.823 117.871 243.768 117.954C243.734 118.004 243.711 118.062 243.702 118.122C243.692 118.182 243.696 118.244 243.714 118.302C243.774 118.56 244.254 118.596 244.536 118.962C244.617 119.056 244.673 119.17 244.698 119.291C244.723 119.413 244.717 119.539 244.68 119.658C244.639 119.788 244.56 119.904 244.453 119.989C244.346 120.075 244.216 120.126 244.08 120.138C243.945 120.152 243.809 120.128 243.688 120.067C243.567 120.007 243.465 119.913 243.396 119.796C243.334 119.686 243.301 119.562 243.301 119.436C243.301 119.31 243.334 119.186 243.396 119.076C243.518 118.904 243.684 118.768 243.876 118.68C244.024 118.608 244.163 118.52 244.29 118.416C244.385 118.332 244.449 118.217 244.47 118.092C244.475 118.046 244.47 117.999 244.457 117.955C244.444 117.911 244.422 117.87 244.392 117.834C244.32 117.714 244.2 117.732 244.2 117.714Z" fill="#263238"/>
<path d="M244.116 116.958C243.978 116.366 243.978 115.75 244.116 115.158C244.254 115.75 244.254 116.366 244.116 116.958Z" fill="#263238"/>
<path d="M252.774 116.298C252.597 116.361 252.41 116.39 252.222 116.382L251.622 116.418C251.577 116.433 251.529 116.433 251.484 116.418C251.455 116.399 251.432 116.372 251.419 116.339C251.407 116.307 251.404 116.272 251.412 116.238C251.433 116.162 251.477 116.095 251.538 116.046L251.802 115.77C251.982 115.63 252.1 115.426 252.132 115.2C252.137 115.119 252.115 115.038 252.07 114.971C252.024 114.903 251.957 114.853 251.88 114.828C251.758 114.813 251.634 114.836 251.526 114.894C251.436 114.93 251.388 114.954 251.376 114.942C251.364 114.93 251.406 114.888 251.484 114.828C251.6 114.728 251.751 114.677 251.904 114.684C252.024 114.708 252.131 114.774 252.207 114.869C252.282 114.965 252.322 115.084 252.318 115.206C252.296 115.478 252.166 115.731 251.958 115.908L251.682 116.178C251.634 116.22 251.598 116.262 251.598 116.28H251.634H252.234C252.414 116.256 252.596 116.262 252.774 116.298Z" fill="#263238"/>
<path d="M223.68 116.262C223.68 116.262 223.68 116.058 223.68 115.704C223.68 115.35 223.68 114.828 223.65 114.222C223.65 112.962 223.614 111.222 223.608 109.23L223.704 109.332H221.826L221.928 109.23V111.312C221.928 111.978 221.928 112.614 221.928 113.214C221.928 114.414 221.928 115.434 221.898 116.256L221.838 116.196L223.206 116.226C223.53 116.226 223.71 116.226 223.716 116.256C223.558 116.266 223.4 116.266 223.242 116.256L221.838 116.286H221.778V116.226C221.778 115.404 221.778 114.372 221.778 113.184C221.778 112.584 221.778 111.948 221.778 111.282V109.2L221.88 109.098H223.8V109.194C223.8 111.228 223.8 112.998 223.752 114.252C223.752 114.852 223.752 115.344 223.752 115.716C223.744 115.9 223.719 116.082 223.68 116.262Z" fill="#263238"/>
<path d="M241.59 116.262C241.583 116.19 241.583 116.118 241.59 116.046C241.59 115.89 241.59 115.698 241.59 115.446C241.59 114.906 241.59 114.174 241.56 113.268C241.56 111.432 241.524 108.888 241.518 106.002L241.62 106.098H239.736L239.838 106.002V107.586C239.838 108.108 239.838 108.618 239.838 109.116C239.838 110.118 239.838 111.06 239.838 111.942C239.838 113.682 239.808 115.158 239.802 116.238L239.748 116.184H241.122H241.494H241.632C241.474 116.195 241.316 116.195 241.158 116.184L239.748 116.214H239.694V116.16C239.694 115.08 239.694 113.604 239.658 111.864C239.658 110.982 239.658 110.064 239.658 109.038C239.658 108.54 239.658 108.03 239.658 107.508V105.924L239.76 105.822H241.74V105.924C241.74 108.852 241.74 111.432 241.698 113.262C241.698 114.156 241.698 114.882 241.668 115.416C241.668 115.644 241.668 115.836 241.668 116.016C241.668 116.196 241.59 116.268 241.59 116.262Z" fill="#263238"/>
<path d="M228.21 116.262C228.203 116.174 228.203 116.086 228.21 115.998C228.21 115.806 228.21 115.56 228.21 115.254C228.21 114.6 228.21 113.682 228.18 112.542C228.18 110.244 228.18 107.07 228.138 103.488L228.24 103.59H226.356C226.56 103.386 226.41 103.536 226.458 103.494V105.522C226.458 106.188 226.458 106.836 226.458 107.472C226.458 108.738 226.458 109.932 226.458 111.03C226.458 113.214 226.428 115.014 226.416 116.262L226.368 116.214H227.754H228.12H228.252H228.138H227.778H226.368H226.32V116.166C226.32 114.918 226.32 113.118 226.284 110.934C226.284 109.836 226.284 108.642 226.284 107.376C226.284 106.74 226.284 106.092 226.284 105.426V103.398C226.332 103.35 226.182 103.494 226.386 103.29H228.366V103.386C228.366 106.986 228.336 110.196 228.324 112.512C228.324 113.64 228.324 114.552 228.294 115.2C228.294 115.5 228.294 115.74 228.294 115.92C228.294 116.1 228.21 116.268 228.21 116.262Z" fill="#263238"/>
<path d="M232.638 116.22C232.636 116.186 232.636 116.152 232.638 116.118V115.8C232.638 115.524 232.638 115.14 232.638 114.654C232.638 113.652 232.638 112.218 232.608 110.454C232.608 106.89 232.578 101.964 232.56 96.432L232.662 96.534H230.76L230.856 96.438V102.78C230.856 104.784 230.856 106.668 230.856 108.384C230.856 111.792 230.82 114.522 230.808 116.184L230.772 116.148H232.158H232.65C232.65 116.148 232.614 116.148 232.536 116.148H232.2H230.79H230.748V116.106C230.748 114.414 230.748 111.684 230.706 108.306C230.706 106.59 230.706 104.706 230.706 102.702C230.706 101.694 230.706 100.662 230.706 99.6V96.36C230.748 96.312 230.604 96.456 230.808 96.252H232.788V96.354C232.788 101.91 232.788 106.866 232.746 110.448C232.746 112.212 232.746 113.64 232.716 114.648C232.716 115.128 232.716 115.506 232.716 115.776V116.064C232.644 116.196 232.644 116.226 232.638 116.22Z" fill="#263238"/>
<path d="M237.18 116.22C237.18 116.22 237.18 116.16 237.18 116.046C237.18 115.932 237.18 115.752 237.18 115.536C237.18 115.086 237.18 114.432 237.18 113.598C237.18 111.912 237.18 109.476 237.15 106.47C237.15 100.47 237.15 92.112 237.108 82.812L237.21 82.914H235.326C235.524 82.716 235.386 82.866 235.428 82.824V88.566C235.428 90.438 235.428 92.262 235.428 94.02C235.428 97.542 235.428 100.806 235.428 103.728C235.428 109.548 235.386 113.97 235.374 116.22H236.784H237.258C237.258 116.22 237.222 116.22 237.144 116.22H236.802H235.374H235.344V116.184C235.344 113.934 235.314 109.512 235.296 103.692C235.296 100.77 235.296 97.506 235.296 93.984C235.296 92.226 235.296 90.384 235.296 88.53V82.8C235.344 82.752 235.194 82.89 235.398 82.686H237.378V82.8C237.378 92.13 237.378 100.488 237.336 106.53C237.336 109.53 237.336 111.93 237.306 113.634C237.306 114.462 237.306 115.104 237.306 115.554C237.306 115.764 237.306 115.926 237.306 116.046C237.306 116.166 237.18 116.226 237.18 116.22Z" fill="#263238"/>
<path d="M35.76 118.2L37.362 146.298L84.372 143.616L35.76 118.2ZM43.614 129.102L63.834 139.902L44.292 141L43.614 129.102Z" fill="#426DDA"/>
<path d="M40.428 120.654C40.2781 121.273 40.0267 121.863 39.684 122.4C39.431 122.989 39.08 123.531 38.646 124.002C38.7929 123.376 39.0444 122.78 39.39 122.238C39.6462 121.656 39.997 121.121 40.428 120.654Z" fill="#263238"/>
<path d="M47.64 124.38C47.4899 124.992 47.2384 125.574 46.896 126.102C46.6477 126.676 46.3004 127.202 45.87 127.656C46.0152 127.044 46.2649 126.461 46.608 125.934C46.8552 125.358 47.2049 124.831 47.64 124.38Z" fill="#263238"/>
<path d="M54.846 128.106C54.6368 128.696 54.3284 129.246 53.934 129.732C53.626 130.282 53.2191 130.77 52.734 131.172C52.9424 130.58 53.2508 130.028 53.646 129.54C53.9573 128.994 54.3637 128.509 54.846 128.106Z" fill="#263238"/>
<path d="M61.938 132C61.7357 132.595 61.4266 133.148 61.026 133.632C60.7108 134.177 60.305 134.664 59.826 135.072C60.0284 134.477 60.3374 133.924 60.738 133.44C61.0532 132.895 61.459 132.408 61.938 132Z" fill="#263238"/>
<path d="M69.342 135.798C69.1664 136.419 68.8864 137.005 68.514 137.532C68.2357 138.11 67.8626 138.637 67.41 139.092C67.8555 137.889 68.5095 136.774 69.342 135.798Z" fill="#263238"/>
<path d="M77.028 139.8C76.8862 140.388 76.6382 140.945 76.296 141.444C76.0463 141.994 75.7009 142.496 75.276 142.926C75.4209 142.336 75.6709 141.777 76.014 141.276C76.2575 140.725 76.6014 140.225 77.028 139.8Z" fill="#263238"/>
<path d="M42.678 121.83C42.756 121.878 42.624 122.286 42.378 122.754C42.132 123.222 41.868 123.552 41.778 123.51C41.688 123.468 41.832 123.054 42.078 122.592C42.324 122.13 42.6 121.8 42.678 121.83Z" fill="#263238"/>
<path d="M45.036 123C45.12 123.042 44.982 123.456 44.736 123.918C44.49 124.38 44.232 124.722 44.136 124.68C44.04 124.638 44.196 124.224 44.436 123.756C44.676 123.288 44.958 122.964 45.036 123Z" fill="#263238"/>
<path d="M50.298 125.79C50.376 125.838 50.244 126.246 49.998 126.714C49.752 127.182 49.488 127.518 49.398 127.47C49.308 127.422 49.452 127.014 49.698 126.552C49.944 126.09 50.22 125.748 50.298 125.79Z" fill="#263238"/>
<path d="M52.662 126.972C52.74 127.014 52.608 127.428 52.362 127.89C52.116 128.352 51.852 128.694 51.762 128.652C51.672 128.61 51.816 128.196 52.062 127.728C52.308 127.26 52.578 126.93 52.662 126.972Z" fill="#263238"/>
<path d="M57.42 129.636C57.504 129.678 57.366 130.092 57.12 130.554C56.874 131.016 56.616 131.358 56.52 131.316C56.424 131.274 56.574 130.86 56.82 130.392C57.066 129.924 57.342 129.6 57.42 129.636Z" fill="#263238"/>
<path d="M59.676 130.8C59.76 130.842 59.622 131.256 59.376 131.718C59.13 132.18 58.872 132.522 58.776 132.48C58.68 132.438 58.83 132.018 59.076 131.556C59.322 131.094 59.598 130.8 59.676 130.8Z" fill="#263238"/>
<path d="M64.542 133.344C64.62 133.392 64.488 133.8 64.242 134.268C63.996 134.736 63.738 135.066 63.642 135.024C63.546 134.982 63.696 134.568 63.942 134.106C64.188 133.644 64.464 133.302 64.542 133.344Z" fill="#263238"/>
<path d="M67.158 134.73C67.236 134.778 67.104 135.186 66.858 135.654C66.612 136.122 66.348 136.458 66.258 136.41C66.168 136.362 66.312 135.954 66.558 135.492C66.804 135.03 67.08 134.688 67.158 134.73Z" fill="#263238"/>
<path d="M71.862 137.208C71.94 137.25 71.808 137.664 71.562 138.126C71.316 138.588 71.052 138.93 70.962 138.888C70.872 138.846 71.016 138.432 71.262 137.964C71.508 137.496 71.778 137.166 71.862 137.208Z" fill="#263238"/>
<path d="M74.574 138.6C74.652 138.648 74.52 139.062 74.274 139.524C74.028 139.986 73.764 140.328 73.674 140.28C73.584 140.232 73.728 139.824 73.974 139.362C74.22 138.9 74.496 138.558 74.574 138.6Z" fill="#263238"/>
<path d="M116.16 79.104C116.16 79.104 116.16 79.068 116.16 79.002C116.16 78.936 116.16 78.828 116.16 78.702C116.16 78.438 116.16 78.054 116.16 77.556C116.16 76.548 116.16 75.084 116.16 73.224C116.16 69.504 116.13 64.224 116.112 57.84L116.202 57.924H94.938L95.034 57.822C95.034 65.622 95.034 72.906 95.034 79.086L94.95 78.996L110.334 79.044H114.666H114.702H110.394L94.95 79.086H94.8V78.996C94.8 72.816 94.8 65.52 94.8 57.732V57.63H94.902H116.166H116.25V57.72C116.25 64.104 116.22 69.426 116.208 73.164C116.208 75.012 116.208 76.47 116.208 77.472C116.208 77.964 116.208 78.336 116.208 78.6V78.984L116.16 79.104Z" fill="#426DDA"/>
<path d="M116.16 79.104C116.211 79.0623 116.265 79.0242 116.322 78.99L116.808 78.678L118.692 77.478L125.616 73.2L125.58 73.266C125.58 67.716 125.58 60.366 125.58 52.32L125.676 52.422H125.622H104.658H104.694L97.536 56.4L95.58 57.492L95.07 57.768L94.896 57.858C94.9482 57.8193 95.0022 57.7833 95.058 57.75L95.562 57.45L97.494 56.328L104.598 52.248H125.562H125.718V52.35C125.718 60.396 125.718 67.746 125.718 73.296V73.338H125.682L118.722 77.592L116.82 78.744L116.322 79.038L116.16 79.104Z" fill="#426DDA"/>
<path d="M125.652 52.296C125.682 52.344 123.582 53.622 120.96 55.152C118.338 56.682 116.16 57.888 116.16 57.84C116.16 57.792 118.23 56.514 120.858 54.978C123.486 53.442 125.628 52.248 125.652 52.296Z" fill="#426DDA"/>
<path d="M95.904 78.228C95.904 78.276 95.724 78.45 95.448 78.606C95.172 78.762 94.92 78.858 94.896 78.81C94.872 78.762 95.07 78.594 95.346 78.432C95.622 78.27 95.874 78.18 95.904 78.228Z" fill="#426DDA"/>
<path d="M97.92 77.07C97.95 77.118 97.746 77.292 97.464 77.448C97.182 77.604 96.936 77.7 96.912 77.652C96.888 77.604 97.086 77.436 97.368 77.274C97.65 77.112 97.89 77.022 97.92 77.07Z" fill="#426DDA"/>
<path d="M99.936 75.912C99.966 75.96 99.762 76.134 99.486 76.29C99.21 76.446 98.958 76.542 98.928 76.494C98.898 76.446 99.102 76.278 99.384 76.116C99.666 75.954 99.912 75.864 99.936 75.912Z" fill="#426DDA"/>
<path d="M101.958 74.754C101.958 74.802 101.778 74.97 101.502 75.132C101.226 75.294 100.974 75.384 100.944 75.336C100.914 75.288 101.124 75.12 101.4 74.958C101.676 74.796 101.928 74.706 101.958 74.754Z" fill="#426DDA"/>
<path d="M103.974 73.596C103.974 73.644 103.8 73.812 103.518 73.974C103.236 74.136 102.99 74.226 102.966 74.178C102.942 74.13 103.14 73.962 103.416 73.8C103.692 73.638 103.944 73.548 103.974 73.596Z" fill="#426DDA"/>
<path d="M104.484 71.562C104.538 71.562 104.58 71.82 104.58 72.162C104.58 72.504 104.532 72.762 104.472 72.762C104.412 72.762 104.376 72.504 104.376 72.162C104.376 71.82 104.43 71.556 104.484 71.562Z" fill="#426DDA"/>
<path d="M104.502 69.234C104.556 69.234 104.604 69.492 104.598 69.834C104.592 70.176 104.55 70.434 104.496 70.434C104.442 70.434 104.394 70.17 104.394 69.834C104.394 69.498 104.448 69.234 104.502 69.234Z" fill="#426DDA"/>
<path d="M104.52 66.906C104.574 66.906 104.622 67.17 104.616 67.506C104.61 67.842 104.568 68.106 104.514 68.106C104.46 68.106 104.412 67.842 104.412 67.506C104.412 67.17 104.466 66.906 104.52 66.906Z" fill="#426DDA"/>
<path d="M104.538 64.578C104.592 64.578 104.64 64.842 104.634 65.178C104.628 65.514 104.586 65.778 104.532 65.778C104.478 65.778 104.43 65.52 104.436 65.178C104.442 64.836 104.484 64.578 104.538 64.578Z" fill="#426DDA"/>
<path d="M104.556 62.256C104.61 62.256 104.658 62.514 104.652 62.856C104.646 63.198 104.604 63.456 104.55 63.456C104.496 63.456 104.448 63.198 104.454 62.856C104.46 62.514 104.502 62.256 104.556 62.256Z" fill="#426DDA"/>
<path d="M104.574 59.928C104.634 59.928 104.676 60.186 104.67 60.528C104.664 60.87 104.622 61.128 104.568 61.128C104.514 61.128 104.466 60.864 104.472 60.528C104.478 60.192 104.52 59.928 104.574 59.928Z" fill="#426DDA"/>
<path d="M104.592 57.6C104.652 57.6 104.694 57.864 104.688 58.2C104.682 58.536 104.64 58.8 104.586 58.8C104.532 58.8 104.484 58.536 104.49 58.2C104.496 57.864 104.538 57.6 104.592 57.6Z" fill="#426DDA"/>
<path d="M104.61 55.272C104.67 55.272 104.712 55.536 104.706 55.872C104.7 56.208 104.658 56.472 104.604 56.472C104.55 56.472 104.502 56.214 104.508 55.872C104.514 55.53 104.556 55.272 104.61 55.272Z" fill="#426DDA"/>
<path d="M104.628 52.95C104.688 52.95 104.73 53.208 104.724 53.55C104.718 53.892 104.676 54.15 104.622 54.15C104.568 54.15 104.52 53.892 104.526 53.55C104.532 53.208 104.574 52.95 104.628 52.95Z" fill="#426DDA"/>
<path d="M124.494 73.248C124.494 73.2 124.752 73.158 125.094 73.158C125.436 73.158 125.694 73.2 125.694 73.248C125.694 73.296 125.436 73.344 125.094 73.344C124.752 73.344 124.494 73.302 124.494 73.248Z" fill="#426DDA"/>
<path d="M122.166 73.248C122.166 73.2 122.424 73.158 122.766 73.158C123.108 73.158 123.366 73.2 123.366 73.248C123.366 73.296 123.102 73.344 122.766 73.344C122.43 73.344 122.166 73.302 122.166 73.248Z" fill="#426DDA"/>
<path d="M119.838 73.248C119.838 73.2 120.096 73.158 120.438 73.158C120.78 73.158 121.038 73.2 121.038 73.248C121.038 73.296 120.78 73.344 120.438 73.344C120.096 73.344 119.838 73.302 119.838 73.248Z" fill="#426DDA"/>
<path d="M117.51 73.248C117.51 73.2 117.774 73.158 118.11 73.158C118.446 73.158 118.71 73.2 118.71 73.248C118.71 73.296 118.452 73.344 118.11 73.344C117.768 73.344 117.51 73.302 117.51 73.248Z" fill="#426DDA"/>
<path d="M115.2 73.248C115.2 73.2 115.458 73.158 115.8 73.158C116.142 73.158 116.4 73.2 116.4 73.248C116.4 73.296 116.142 73.344 115.8 73.344C115.458 73.344 115.2 73.302 115.2 73.248Z" fill="#426DDA"/>
<path d="M112.86 73.248C112.86 73.2 113.118 73.158 113.46 73.158C113.802 73.158 114.06 73.2 114.06 73.248C114.06 73.296 113.796 73.344 113.46 73.344C113.124 73.344 112.86 73.302 112.86 73.248Z" fill="#426DDA"/>
<path d="M110.532 73.248C110.532 73.2 110.79 73.158 111.132 73.158C111.474 73.158 111.732 73.2 111.732 73.248C111.732 73.296 111.474 73.344 111.132 73.344C110.79 73.344 110.532 73.302 110.532 73.248Z" fill="#426DDA"/>
<path d="M108.204 73.248C108.204 73.2 108.468 73.158 108.804 73.158C109.14 73.158 109.404 73.2 109.404 73.248C109.404 73.296 109.146 73.344 108.804 73.344C108.462 73.344 108.204 73.302 108.204 73.248Z" fill="#426DDA"/>
<path d="M105.882 73.248C105.882 73.2 106.14 73.158 106.482 73.158C106.824 73.158 107.082 73.2 107.082 73.248C107.082 73.296 106.824 73.344 106.482 73.344C106.14 73.344 105.882 73.302 105.882 73.248Z" fill="#426DDA"/>
<path d="M104.472 73.248C104.472 73.2 104.526 73.158 104.592 73.158C104.658 73.158 104.718 73.2 104.718 73.248C104.718 73.296 104.664 73.344 104.592 73.344C104.578 73.3457 104.563 73.3445 104.55 73.3406C104.536 73.3366 104.523 73.33 104.512 73.3211C104.501 73.3121 104.492 73.3011 104.485 73.2885C104.478 73.276 104.474 73.2622 104.472 73.248Z" fill="#426DDA"/>
<path d="M128.226 66.162C128.404 66.1793 128.582 66.1793 128.76 66.162C128.993 66.1104 129.212 66.0093 129.403 65.8653C129.593 65.7214 129.751 65.5382 129.864 65.328C130.014 65.01 130.087 64.6612 130.076 64.3098C130.066 63.9584 129.973 63.6145 129.804 63.306C129.765 63.2212 129.707 63.1466 129.634 63.0883C129.561 63.03 129.475 62.9895 129.384 62.97C129.192 62.946 128.998 62.9976 128.844 63.114C128.524 63.4247 128.29 63.8135 128.166 64.242C127.998 64.7074 127.897 65.1942 127.866 65.688H127.668C127.668 64.146 127.638 62.802 127.638 61.842C127.638 61.392 127.638 61.014 127.638 60.714C127.622 60.5785 127.622 60.4415 127.638 60.306C127.666 60.4403 127.68 60.5769 127.68 60.714C127.68 61.014 127.68 61.392 127.728 61.842C127.764 62.802 127.8 64.146 127.83 65.688H127.632C127.664 65.1757 127.769 64.6706 127.944 64.188C128.027 63.9624 128.123 63.742 128.232 63.528C128.341 63.3105 128.496 63.1198 128.688 62.97C128.786 62.8953 128.898 62.8409 129.018 62.81C129.137 62.7791 129.262 62.7723 129.384 62.79C129.5 62.8181 129.609 62.8713 129.702 62.946C129.795 63.0206 129.871 63.1148 129.924 63.222C130.102 63.5597 130.194 63.9355 130.194 64.317C130.194 64.6985 130.102 65.0743 129.924 65.412C129.8 65.6327 129.628 65.8224 129.42 65.9669C129.212 66.1113 128.974 66.2068 128.724 66.246C128.589 66.2682 128.451 66.2682 128.316 66.246C128.282 66.2232 128.251 66.1948 128.226 66.162Z" fill="#426DDA"/>
<path d="M69.252 165.738C69.252 165.738 69.336 165.738 69.498 165.81C69.66 165.882 69.9 165.936 70.206 166.062C71.1022 166.416 71.9589 166.862 72.762 167.394C74.0416 168.236 75.1763 169.279 76.122 170.484C77.3913 172.076 78.2523 173.955 78.63 175.956C79.0587 178.395 78.7343 180.906 77.7 183.156C77.1307 184.409 76.3377 185.548 75.36 186.516C74.8483 187.022 74.2875 187.477 73.686 187.872C73.368 188.052 73.086 188.244 72.726 188.412C72.366 188.58 72.066 188.742 71.712 188.868C68.916 189.978 65.712 190.026 62.496 189.72C60.888 189.564 59.268 189.33 57.618 189.072C55.9422 188.832 54.2902 188.449 52.68 187.926C51.0519 187.409 49.547 186.563 48.258 185.442C47.6403 184.876 47.096 184.235 46.638 183.534C46.2037 182.832 45.8552 182.081 45.6 181.296C45.1166 179.768 44.9552 178.156 45.126 176.562C45.2949 175.041 45.7381 173.563 46.434 172.2C47.8044 169.709 49.8733 167.674 52.386 166.344C54.551 165.175 56.9158 164.422 59.358 164.124C61.3662 163.886 63.3947 163.872 65.406 164.082C66.9208 164.243 68.4252 164.489 69.912 164.82C71.112 165.096 72.072 165.348 72.708 165.522L73.428 165.732L73.674 165.816L73.422 165.756L72.696 165.57C72.06 165.408 71.118 165.168 69.894 164.91C68.4062 164.595 66.9018 164.365 65.388 164.22C63.3917 164.019 61.379 164.043 59.388 164.292C56.972 164.601 54.6344 165.356 52.494 166.518C50.0231 167.836 47.9901 169.846 46.644 172.302C45.9643 173.645 45.5353 175.101 45.378 176.598C45.2139 178.16 45.3732 179.739 45.846 181.236C46.0916 182.002 46.4301 182.736 46.854 183.42C47.2974 184.104 47.8256 184.729 48.426 185.28C49.6927 186.377 51.1684 187.205 52.764 187.716C54.3647 188.233 56.0067 188.613 57.672 188.85C59.31 189.108 60.936 189.342 62.532 189.498C65.712 189.804 68.898 189.762 71.646 188.67C74.2665 187.658 76.3817 185.653 77.532 183.09C78.5567 180.876 78.8872 178.403 78.48 175.998C78.109 174.027 77.2671 172.174 76.026 170.598C75.0967 169.4 73.9828 168.357 72.726 167.508C71.9297 166.972 71.0839 166.514 70.2 166.14C69.894 166.014 69.66 165.936 69.498 165.87L69.252 165.738Z" fill="#263238"/>
<path d="M53.232 181.242C53.0732 181.283 52.9099 181.303 52.746 181.302L51.408 181.368H50.964C50.7948 181.391 50.6232 181.391 50.454 181.368C50.347 181.335 50.2568 181.262 50.202 181.164C50.1567 181.074 50.1301 180.976 50.124 180.876L50.088 180.33C50.046 179.574 49.998 178.758 49.95 177.93C49.902 177.102 49.848 176.256 49.842 175.494C49.8319 175.12 49.9187 174.75 50.094 174.42C50.2675 174.147 50.5241 173.937 50.826 173.82C51.259 173.669 51.7205 173.618 52.176 173.67C52.3417 173.674 52.5058 173.705 52.662 173.76C52.4983 173.774 52.3337 173.774 52.17 173.76C51.7341 173.741 51.299 173.813 50.892 173.97C50.6351 174.089 50.4243 174.29 50.292 174.54C50.1419 174.841 50.0697 175.176 50.082 175.512C50.082 176.244 50.172 177.078 50.208 177.912C50.244 178.746 50.292 179.586 50.334 180.312C50.37 180.666 50.292 181.11 50.538 181.17C50.6872 181.192 50.8388 181.192 50.988 181.17H52.788C52.9385 181.175 53.0877 181.199 53.232 181.242Z" fill="#263238"/>
<path d="M52.56 177.312C52.1561 177.435 51.7333 177.484 51.312 177.456C50.8917 177.502 50.4665 177.469 50.058 177.36C50.4612 177.234 50.8847 177.185 51.306 177.216C51.7264 177.17 52.1516 177.202 52.56 177.312Z" fill="#263238"/>
<path d="M58.8 176.196C58.1701 176.285 57.5336 176.317 56.898 176.292C56.267 176.342 55.633 176.342 55.002 176.292C55.6127 176.099 56.2519 176.012 56.892 176.034C57.5326 175.984 58.1771 176.038 58.8 176.196Z" fill="#263238"/>
<path d="M59.172 179.064C58.5547 179.205 57.9191 179.25 57.288 179.196C56.6582 179.221 56.0284 179.146 55.422 178.974C56.0446 178.914 56.6715 178.914 57.294 178.974C57.9215 178.947 58.55 178.977 59.172 179.064Z" fill="#263238"/>
<path d="M69.258 180.786C69.258 180.786 69.258 180.528 69.258 180.054C69.2292 179.385 69.108 178.722 68.898 178.086C68.8019 177.64 68.5564 177.24 68.202 176.952C68.1007 176.895 67.9849 176.868 67.8688 176.876C67.7527 176.883 67.6412 176.924 67.548 176.994C67.3363 177.151 67.1655 177.357 67.05 177.594C66.57 178.774 66.3648 180.049 66.45 181.32H66.216C66.2846 180.401 66.2725 179.477 66.18 178.56C66.1469 178.188 66.0949 177.817 66.024 177.45C65.9646 177.111 65.7859 176.805 65.52 176.586C65.3924 176.494 65.2392 176.445 65.082 176.445C64.9248 176.445 64.7716 176.494 64.644 176.586C64.3746 176.763 64.1785 177.032 64.092 177.342C64.006 177.654 63.9498 177.973 63.924 178.296C63.888 178.614 63.858 178.926 63.846 179.232C63.813 179.802 63.813 180.372 63.846 180.942H63.66C63.612 179.592 63.57 178.488 63.54 177.678C63.54 177.318 63.54 177.024 63.54 176.79C63.527 176.686 63.527 176.582 63.54 176.478C63.5639 176.58 63.578 176.685 63.582 176.79L63.654 177.678C63.702 178.482 63.774 179.586 63.858 180.93H63.672C63.6414 180.354 63.6414 179.778 63.672 179.202C63.672 178.896 63.708 178.602 63.744 178.254C63.7684 177.917 63.8267 177.583 63.918 177.258C64.0166 176.895 64.2423 176.58 64.554 176.37C64.7335 176.257 64.9419 176.199 65.154 176.202C65.3699 176.203 65.58 176.272 65.754 176.4C66.0678 176.651 66.2808 177.007 66.354 177.402C66.4305 177.779 66.4866 178.159 66.522 178.542C66.6026 179.474 66.6026 180.412 66.522 181.344H66.288C66.2087 180.04 66.4347 178.735 66.948 177.534C67.0845 177.257 67.2915 177.021 67.548 176.85C67.6709 176.762 67.8167 176.711 67.9678 176.703C68.119 176.696 68.269 176.732 68.4 176.808C68.7877 177.121 69.0531 177.561 69.15 178.05C69.3482 178.704 69.4493 179.383 69.45 180.066C69.45 180.306 69.45 180.492 69.42 180.612C69.3757 180.678 69.321 180.737 69.258 180.786Z" fill="#263238"/>
<path d="M74.514 180.408C74.514 180.408 74.43 180.51 74.226 180.612C73.9357 180.753 73.6187 180.831 73.296 180.84C72.8086 180.855 72.3278 180.723 71.916 180.462C71.4111 180.127 71.0514 179.614 70.909 179.026C70.7665 178.437 70.8519 177.816 71.148 177.288C71.3965 176.868 71.7641 176.532 72.204 176.322C72.4945 176.182 72.8117 176.106 73.134 176.1C73.2521 176.091 73.3707 176.107 73.482 176.148C73.0657 176.183 72.6591 176.292 72.282 176.472C71.8901 176.687 71.5659 177.007 71.346 177.396C71.0945 177.88 71.0264 178.439 71.1543 178.969C71.2822 179.499 71.5975 179.966 72.042 180.282C72.4165 180.529 72.8535 180.664 73.302 180.672C73.7191 180.662 74.1304 180.572 74.514 180.408Z" fill="#263238"/>
<path d="M75.93 173.61C75.0257 173.665 74.1302 173.82 73.26 174.072L72.858 174.204L73.158 173.898C73.7358 173.371 74.2367 172.765 74.646 172.098C74.9659 171.541 75.0765 170.888 74.958 170.256C74.892 169.974 74.724 169.752 74.496 169.746C74.2588 169.75 74.0261 169.812 73.818 169.926C73.4998 170.09 73.2181 170.316 72.99 170.592C72.828 170.79 72.762 170.922 72.744 170.91C72.7686 170.773 72.8286 170.645 72.918 170.538C73.1249 170.222 73.4074 169.962 73.74 169.782C73.971 169.638 74.2359 169.557 74.508 169.548C74.5916 169.551 74.6738 169.571 74.7492 169.607C74.8247 169.643 74.8917 169.694 74.946 169.758C75.0536 169.884 75.1297 170.035 75.168 170.196C75.3163 170.883 75.2052 171.602 74.856 172.212C74.4382 172.908 73.9138 173.533 73.302 174.066L73.2 173.886C73.839 173.694 74.501 173.589 75.168 173.574C75.4221 173.541 75.6802 173.553 75.93 173.61Z" fill="#263238"/>
<path d="M116.112 166.512L128.898 164.046L153.426 169.674L165.858 172.266L166.038 189.252L138.306 194.358L119.592 188.814L112.518 178.404L116.112 166.512Z" fill="#FFBE9D"/>
<path d="M107.028 168.204L119.094 165.36C119.094 165.36 127.626 191.76 148.68 190.602C165.84 189.672 165.858 172.266 165.858 172.266L178.404 174.48C178.404 174.48 183.666 206.334 177.9 228.678C173.1 247.278 168.84 272.766 168.84 272.766H85.494L107.028 168.204Z" fill="#426DDA"/>
<path d="M229.29 249.822C229.29 249.822 194.916 189.6 188.73 181.872C181.956 173.412 176.55 174.39 176.55 174.39L172.914 214.956L202.14 256.422L209.106 258.936L229.29 249.822Z" fill="#426DDA"/>
<path d="M108.468 167.868C108.468 167.868 88.932 169.428 81.924 201.468C78.756 215.946 74.724 232.914 73.596 244.314C72.756 252.588 77.862 261.192 86.112 262.248L96.468 264.168C99.204 264.676 102.03 264.115 104.366 262.602C106.701 261.088 108.366 258.737 109.02 256.032L112.518 241.548L103.2 238.416L105.354 195.27L108.468 167.868Z" fill="#426DDA"/>
<path d="M180 196.872C180.046 197.016 180.076 197.165 180.09 197.316C180.144 197.64 180.204 198.072 180.288 198.606C180.33 198.888 180.372 199.206 180.426 199.542C180.48 199.878 180.498 200.256 180.534 200.658C180.618 201.456 180.714 202.368 180.756 203.382C180.901 205.753 180.917 208.131 180.804 210.504C180.664 213.409 180.375 216.305 179.94 219.18C179.49 222.24 178.926 225.132 178.356 227.748C177.786 230.364 177.216 232.71 176.73 234.678C176.244 236.646 175.818 238.224 175.53 239.316C175.386 239.838 175.272 240.258 175.182 240.57C175.146 240.717 175.1 240.861 175.044 241.002C175.056 240.852 175.082 240.703 175.122 240.558C175.194 240.234 175.296 239.814 175.416 239.286L176.52 234.6C176.982 232.626 177.534 230.28 178.08 227.664C178.626 225.048 179.19 222.162 179.64 219.108C180.09 216.054 180.396 213.108 180.522 210.462C180.648 207.816 180.66 205.386 180.522 203.37C180.522 202.362 180.414 201.45 180.348 200.646C180.318 200.25 180.288 199.878 180.264 199.53C180.24 199.182 180.186 198.882 180.156 198.594C180.096 198.06 180.054 197.628 180.018 197.304C180.002 197.161 179.996 197.016 180 196.872Z" fill="#263238"/>
<path d="M113.43 243.096C113.389 243.011 113.354 242.923 113.328 242.832C113.268 242.634 113.184 242.382 113.082 242.058L112.698 240.816C112.59 240.251 112.352 239.719 112.002 239.262C111.488 238.769 110.874 238.393 110.202 238.158C109.412 237.859 108.596 237.63 107.766 237.474C105.786 237.107 103.779 236.906 101.766 236.874H101.604V236.718L103.368 225.216C104.502 217.974 105.534 211.416 106.284 206.616C106.674 204.264 106.986 202.35 107.208 200.994C107.316 200.352 107.406 199.842 107.472 199.464C107.472 199.308 107.526 199.176 107.55 199.068C107.554 199.022 107.566 198.978 107.586 198.936C107.595 198.982 107.595 199.028 107.586 199.074C107.586 199.182 107.586 199.314 107.538 199.476C107.49 199.854 107.418 200.364 107.334 201.012C107.136 202.374 106.854 204.294 106.512 206.652C105.78 211.452 104.784 217.998 103.68 225.252C103.032 229.392 102.426 233.31 101.88 236.748L101.742 236.586C103.78 236.639 105.809 236.865 107.808 237.264C108.65 237.432 109.475 237.675 110.274 237.99C110.974 238.247 111.607 238.657 112.128 239.19C112.342 239.431 112.502 239.715 112.596 240.024L112.818 240.822C112.956 241.308 113.07 241.728 113.166 242.076C113.262 242.424 113.322 242.676 113.37 242.862C113.397 242.938 113.417 243.016 113.43 243.096Z" fill="#263238"/>
<path d="M86.52 247.992C86.5392 247.719 86.5916 247.449 86.676 247.188C86.8647 246.465 87.1177 245.76 87.432 245.082C88.4552 242.816 90.0502 240.855 92.0605 239.392C94.0708 237.928 96.4271 237.013 98.898 236.736C99.6384 236.646 100.385 236.621 101.13 236.664C101.405 236.667 101.679 236.701 101.946 236.766C100.943 236.772 99.9417 236.834 98.946 236.952C96.5313 237.285 94.2363 238.21 92.2652 239.644C90.2941 241.078 88.708 242.977 87.648 245.172C87.2219 246.091 86.8454 247.033 86.52 247.992Z" fill="#263238"/>
<path d="M91.038 232.044C91.1908 232.005 91.3488 231.991 91.506 232.002C91.9368 231.994 92.3678 232.014 92.796 232.062C94.2127 232.205 95.6012 232.552 96.918 233.094C98.2345 233.639 99.4668 234.368 100.578 235.26C100.915 235.526 101.234 235.815 101.532 236.124C101.742 236.346 101.856 236.472 101.838 236.49C101.82 236.508 101.31 236.07 100.446 235.434C98.1803 233.774 95.5443 232.691 92.766 232.278C91.704 232.122 91.038 232.098 91.038 232.044Z" fill="#263238"/>
<path d="M111.258 190.602C111.219 190.318 111.205 190.031 111.216 189.744C111.216 189.192 111.18 188.4 111.108 187.422C110.928 184.87 110.49 182.343 109.8 179.88C109.101 177.42 108.158 175.037 106.986 172.764C106.53 171.894 106.146 171.198 105.864 170.73C105.706 170.491 105.569 170.238 105.456 169.974C105.647 170.187 105.818 170.418 105.966 170.664C106.284 171.12 106.698 171.798 107.166 172.662C109.663 177.194 111.08 182.241 111.306 187.41C111.348 188.394 111.342 189.21 111.306 189.744C111.318 190.031 111.302 190.318 111.258 190.602Z" fill="#263238"/>
<g opacity="0.3">
<path d="M179.112 223.746C184.092 215.304 184.2 204.336 179.85 195.546C181.249 204.911 180.948 214.452 178.962 223.71" fill="black"/>
</g>
<g opacity="0.3">
<path d="M134.772 233.292C130.992 234.402 125.772 234.672 122.07 233.292C124.956 237.39 130.518 238.872 135.342 237.54C140.166 236.208 144.618 231.378 144.99 226.38C142.656 229.536 138.558 232.2 134.772 233.292Z" fill="black"/>
</g>
<path d="M148.68 219.66C148.663 219.775 148.632 219.888 148.59 219.996C148.518 220.212 148.434 220.542 148.266 220.938C147.829 222.085 147.284 223.187 146.64 224.232C145.69 225.789 144.543 227.217 143.226 228.48C139.996 231.624 135.826 233.626 131.352 234.18C129.544 234.415 127.712 234.415 125.904 234.18C124.683 234.028 123.478 233.765 122.304 233.394C121.884 233.268 121.578 233.13 121.362 233.052C121.252 233.015 121.146 232.969 121.044 232.914C121.48 233.012 121.91 233.132 122.334 233.274C127.414 234.687 132.832 234.238 137.61 232.008C142.34 229.683 146.078 225.735 148.14 220.884C148.488 220.104 148.65 219.648 148.68 219.66Z" fill="#263238"/>
<path d="M106.536 261.666C106.536 261.666 106.494 261.732 106.386 261.828C106.235 261.978 106.072 262.117 105.9 262.242C105.272 262.71 104.576 263.078 103.836 263.334C102.736 263.7 101.587 263.902 100.428 263.934C99.0262 263.978 97.623 263.928 96.228 263.784C93.228 263.526 90.564 263.088 88.638 262.746C87.672 262.572 86.892 262.422 86.358 262.308C86.0736 262.269 85.7941 262.201 85.524 262.104C85.8098 262.108 86.0948 262.136 86.376 262.188L88.674 262.524C90.606 262.818 93.282 263.214 96.258 263.472C97.6531 263.616 99.0557 263.674 100.458 263.646C101.594 263.622 102.72 263.44 103.806 263.106C104.783 262.766 105.703 262.28 106.536 261.666Z" fill="#263238"/>
<path d="M174.3 103.8L176.766 101.4C180.048 102.828 181.566 106.638 182.124 110.178C182.682 113.718 182.598 117.438 184.104 120.69C185.256 123.192 187.35 125.49 187.104 128.256C186.87 130.866 184.506 132.978 184.494 135.6C184.494 138.126 186.594 140.064 187.818 142.272C190.296 146.742 191.904 165.03 190.608 169.98C179.706 169.038 160.398 167.874 149.49 165.366C152.364 146.574 164.466 120.054 174.3 103.8Z" fill="#263238"/>
<path d="M179.178 120.552C179.934 107.778 170.658 96.09 157.728 94.548C144.006 92.916 131.868 102.744 130.728 116.112L127.512 170.076C127.453 171.119 127.745 172.152 128.34 173.01C131.508 177.642 137.244 181.266 142.374 181.98C147.336 182.67 152.37 181.38 156.594 179.028C157.295 178.632 157.879 178.059 158.289 177.366C158.698 176.673 158.919 175.885 158.928 175.08L159.15 163.002C159.149 162.992 159.15 162.981 159.154 162.971C159.158 162.961 159.163 162.952 159.171 162.945C159.178 162.937 159.187 162.932 159.197 162.928C159.207 162.924 159.218 162.923 159.228 162.924C160.358 163.009 161.494 162.977 162.618 162.828C165.81 162.048 173.952 158.916 176.688 146.964C177.6 143.004 178.512 131.754 179.178 120.552Z" fill="#FFBE9D"/>
<path d="M161.43 138.198C161.43 138.078 162.768 137.946 164.934 137.826C165.48 137.826 166.002 137.736 166.134 137.376C166.215 136.826 166.122 136.264 165.87 135.768L164.526 131.568C162.666 125.616 161.358 120.738 161.598 120.672C161.838 120.606 163.548 125.364 165.408 131.316C165.852 132.786 166.278 134.184 166.686 135.516C166.854 136.116 167.16 136.848 166.83 137.634C166.738 137.817 166.605 137.977 166.442 138.101C166.279 138.224 166.089 138.309 165.888 138.348C165.582 138.409 165.27 138.431 164.958 138.414C162.774 138.402 161.436 138.318 161.43 138.198Z" fill="#263238"/>
<path d="M175.65 125.07C175.416 125.328 174 124.14 171.972 124.08C169.944 124.02 168.432 125.082 168.216 124.806C168.108 124.68 168.354 124.206 169.014 123.714C169.886 123.087 170.941 122.767 172.014 122.802C173.086 122.839 174.115 123.234 174.936 123.924C175.566 124.464 175.8 124.956 175.65 125.07Z" fill="#263238"/>
<path d="M155.046 125.586C154.77 125.844 153.294 124.506 151.08 124.314C148.866 124.122 147.144 125.136 146.922 124.836C146.814 124.698 147.114 124.236 147.864 123.744C148.869 123.149 150.037 122.888 151.2 123C152.364 123.103 153.463 123.581 154.332 124.362C154.986 124.944 155.178 125.472 155.046 125.586Z" fill="#263238"/>
<path d="M159.15 162.918C159.15 162.918 150.882 163.008 140.994 156.216C140.994 156.216 143.55 167.124 159.084 166.782L159.15 162.918Z" fill="#EB996E"/>
<path d="M160.2 143.178C159.823 142.647 159.32 142.219 158.735 141.932C158.15 141.646 157.503 141.511 156.852 141.54C156.382 141.547 155.919 141.648 155.489 141.838C155.059 142.027 154.672 142.302 154.35 142.644C154.043 142.972 153.846 143.388 153.787 143.833C153.727 144.278 153.809 144.731 154.02 145.128C154.542 145.962 155.73 146.232 156.768 146.016C157.796 145.735 158.758 145.254 159.6 144.6C159.85 144.44 160.069 144.237 160.248 144C160.332 143.889 160.382 143.756 160.391 143.617C160.399 143.478 160.366 143.34 160.296 143.22" fill="#EB996E"/>
<path d="M155.07 139.2C155.418 139.2 155.28 141.48 157.152 143.232C159.024 144.984 161.502 144.9 161.502 145.218C161.502 145.368 160.902 145.626 159.882 145.578C158.53 145.503 157.245 144.962 156.246 144.048C155.294 143.178 154.722 141.969 154.65 140.682C154.62 139.728 154.914 139.2 155.07 139.2Z" fill="#263238"/>
<path d="M155.4 117.222C155.148 117.774 153.042 117.348 150.528 117.45C148.014 117.552 145.944 118.05 145.644 117.54C145.518 117.282 145.902 116.778 146.76 116.286C147.901 115.692 149.161 115.362 150.447 115.32C151.732 115.278 153.011 115.527 154.188 116.046C155.058 116.478 155.484 116.958 155.4 117.222Z" fill="#263238"/>
<path d="M176.088 117.672C175.656 118.152 173.946 117.672 171.888 117.672C169.83 117.672 168.102 118.014 167.688 117.516C167.508 117.276 167.778 116.796 168.534 116.316C169.581 115.767 170.749 115.493 171.931 115.518C173.112 115.543 174.268 115.867 175.29 116.46C176.034 116.946 176.28 117.438 176.088 117.672Z" fill="#263238"/>
<path d="M159.6 91.848C158.484 89.952 156.414 89.088 154.098 88.74C144.642 87.306 134.094 93 128.796 100.956C123.498 108.912 123.216 120.786 127.092 129.522L132.99 125.838C144.828 120.954 153.186 109.548 160.8 97.764C161.862 96.162 160.59 93.498 159.6 91.848Z" fill="#263238"/>
<path d="M174.168 97.05C170.214 92.55 167.34 88.05 159.132 91.194C157.932 93.492 160.332 96.474 162.396 98.214C165.396 100.77 167.97 102.492 169.926 104.322C173.874 108.012 178.362 120.426 178.752 127.2C178.752 127.626 179.502 121.386 179.952 121.32C180.504 121.236 182.73 118.512 182.424 114.792C181.368 102.078 178.122 101.544 174.168 97.05Z" fill="#263238"/>
<path d="M154.122 88.74C154.739 88.6197 155.376 88.6737 155.964 88.896C157.417 89.3415 158.711 90.1929 159.696 91.35C159.977 91.6753 160.226 92.0269 160.44 92.4C160.626 92.7604 160.771 93.1409 160.872 93.534C161.086 94.1678 161.249 94.818 161.358 95.478C161.52 96.636 161.244 97.338 161.184 97.32C161.124 97.302 161.214 96.612 160.962 95.55C160.795 94.9217 160.595 94.3028 160.362 93.696C160.255 93.3413 160.115 92.9977 159.942 92.67C159.739 92.3261 159.506 92.0009 159.246 91.698C158.317 90.6217 157.142 89.786 155.82 89.262C154.8 88.896 154.11 88.836 154.122 88.74Z" fill="#455A64"/>
<path d="M173.778 129C173.779 129.46 173.603 129.903 173.287 130.238C172.972 130.573 172.539 130.774 172.08 130.8C171.852 130.821 171.622 130.797 171.403 130.728C171.184 130.659 170.982 130.548 170.807 130.4C170.632 130.252 170.488 130.07 170.384 129.866C170.281 129.662 170.219 129.439 170.202 129.21C170.19 128.743 170.361 128.289 170.678 127.945C170.995 127.601 171.433 127.394 171.9 127.368C172.132 127.346 172.365 127.371 172.587 127.442C172.809 127.513 173.014 127.628 173.189 127.781C173.365 127.934 173.508 128.12 173.609 128.33C173.71 128.54 173.768 128.767 173.778 129Z" fill="#263238"/>
<path d="M154.014 129.096C154.026 129.563 153.855 130.017 153.538 130.361C153.221 130.705 152.783 130.912 152.316 130.938C152.088 130.96 151.858 130.937 151.64 130.869C151.421 130.801 151.218 130.689 151.043 130.542C150.868 130.394 150.724 130.213 150.62 130.009C150.517 129.805 150.455 129.582 150.438 129.354C150.425 128.886 150.595 128.43 150.912 128.085C151.229 127.74 151.668 127.532 152.136 127.506C152.364 127.484 152.595 127.508 152.814 127.576C153.033 127.644 153.236 127.756 153.411 127.904C153.586 128.053 153.73 128.234 153.833 128.439C153.937 128.644 153.998 128.867 154.014 129.096Z" fill="#263238"/>
<path d="M99.63 144.114C100.746 142.278 102.03 140.55 104.07 139.788C106.11 139.026 108.426 138.588 110.028 137.1C112.542 134.79 112.428 130.95 112.2 127.602C111.972 124.254 111.912 120.402 114.48 118.152C116.628 116.274 120.042 116.106 121.902 113.952C123.144 112.518 123.39 110.538 123.822 108.708C125.022 103.806 127.704 95.244 142.152 90.318L129.372 138.882C130.326 139.152 132.606 141.324 132.732 142.794C132.846 144.168 132.252 145.56 132.24 146.94C132.24 148.626 134.076 149.634 135.24 150.882C136.716 152.472 137.172 154.764 136.944 156.882C136.471 159.777 135.697 162.614 134.634 165.348C122.778 164.148 105.474 163.764 96.438 156.204C94.8 154.836 97.146 148.2 99.63 144.114Z" fill="#263238"/>
<path d="M133.014 125.838C132.792 125.718 124.062 122.238 123.504 131.448C122.946 140.658 132.288 139.29 132.318 139.032C132.348 138.774 133.014 125.838 133.014 125.838Z" fill="#FFBE9D"/>
<path d="M129.726 135.384C129.684 135.348 129.558 135.486 129.276 135.588C128.886 135.731 128.455 135.716 128.076 135.546C127.128 135.126 126.402 133.536 126.456 131.88C126.486 131.091 126.691 130.318 127.056 129.618C127.161 129.337 127.331 129.085 127.554 128.883C127.776 128.682 128.044 128.536 128.334 128.46C128.521 128.423 128.715 128.452 128.883 128.543C129.051 128.634 129.181 128.781 129.252 128.958C129.36 129.222 129.288 129.402 129.336 129.42C129.384 129.438 129.546 129.276 129.492 128.892C129.457 128.66 129.343 128.448 129.168 128.292C128.928 128.085 128.615 127.981 128.298 128.004C127.916 128.055 127.554 128.203 127.246 128.434C126.938 128.665 126.695 128.972 126.54 129.324C126.101 130.098 125.858 130.967 125.832 131.856C125.778 133.71 126.618 135.498 127.926 135.96C128.168 136.048 128.426 136.08 128.682 136.052C128.938 136.025 129.184 135.94 129.402 135.804C129.696 135.6 129.756 135.402 129.726 135.384Z" fill="#EB996E"/>
<path d="M165.684 128.244C165.733 127.552 165.831 126.864 165.978 126.186C166.256 125.051 166.767 123.987 167.479 123.061C168.191 122.135 169.088 121.368 170.114 120.808C171.139 120.249 172.27 119.909 173.434 119.811C174.598 119.713 175.77 119.859 176.874 120.24C177.635 120.497 178.351 120.869 178.998 121.344C179.689 121.822 180.297 122.409 180.798 123.084C181.873 124.492 182.468 126.207 182.496 127.978C182.525 129.749 181.984 131.483 180.954 132.924C180.478 133.613 179.895 134.221 179.226 134.724C178.596 135.221 177.891 135.616 177.138 135.894C175.746 136.43 174.235 136.584 172.764 136.338C171.481 136.126 170.266 135.614 169.218 134.844C167.684 133.728 166.57 132.128 166.056 130.302C165.89 129.627 165.77 128.941 165.696 128.25C165.693 128.296 165.693 128.342 165.696 128.388C165.696 128.502 165.696 128.634 165.696 128.796C165.701 129.015 165.723 129.234 165.762 129.45C165.795 129.748 165.851 130.043 165.93 130.332C166.412 132.211 167.524 133.867 169.08 135.024C170.233 135.886 171.585 136.443 173.01 136.643C174.436 136.842 175.889 136.677 177.234 136.164C178.831 135.561 180.211 134.495 181.2 133.104C182.27 131.611 182.832 129.814 182.802 127.977C182.773 126.141 182.155 124.362 181.038 122.904C180.518 122.209 179.89 121.601 179.178 121.104C178.513 120.626 177.778 120.254 177 120C175.64 119.53 174.183 119.412 172.764 119.656C171.346 119.9 170.012 120.5 168.888 121.398C167.366 122.605 166.306 124.301 165.888 126.198C165.819 126.49 165.771 126.787 165.744 127.086C165.715 127.305 165.701 127.525 165.702 127.746C165.702 127.908 165.702 128.04 165.702 128.148C165.695 128.18 165.689 128.212 165.684 128.244Z" fill="#455A64"/>
<path d="M142.5 128.616C142.548 127.924 142.644 127.236 142.788 126.558C143.239 124.718 144.296 123.082 145.788 121.914C146.812 121.111 148.01 120.56 149.286 120.306C150.749 120.017 152.263 120.122 153.672 120.612C154.432 120.871 155.148 121.243 155.796 121.716C156.486 122.195 157.094 122.783 157.596 123.456C158.67 124.863 159.265 126.577 159.294 128.346C159.323 130.116 158.785 131.848 157.758 133.29C157.28 133.979 156.694 134.586 156.024 135.09C155.394 135.587 154.689 135.982 153.936 136.26C152.544 136.796 151.033 136.95 149.562 136.704C148.281 136.492 147.068 135.98 146.022 135.21C144.487 134.094 143.371 132.494 142.854 130.668C142.689 129.993 142.57 129.307 142.5 128.616C142.494 128.662 142.494 128.708 142.5 128.754C142.5 128.862 142.5 129 142.5 129.162C142.5 129.381 142.52 129.6 142.56 129.816C142.592 130.115 142.65 130.41 142.734 130.698C143.211 132.579 144.324 134.237 145.884 135.39C146.945 136.187 148.178 136.725 149.484 136.962C151.002 137.224 152.561 137.074 154.002 136.53C155.601 135.931 156.983 134.865 157.968 133.47C159.038 131.977 159.6 130.18 159.57 128.343C159.541 126.507 158.923 124.728 157.806 123.27C156.774 121.91 155.36 120.888 153.744 120.336C152.286 119.838 150.722 119.741 149.214 120.054C147.608 120.384 146.131 121.171 144.96 122.319C143.79 123.467 142.975 124.928 142.614 126.528C142.539 126.819 142.491 127.116 142.47 127.416C142.434 127.634 142.42 127.855 142.428 128.076V128.478C142.442 128.529 142.466 128.576 142.5 128.616Z" fill="#455A64"/>
<path d="M159.06 127.986C159.108 128.016 159.348 127.626 159.906 127.176C160.621 126.583 161.517 126.251 162.446 126.234C163.375 126.218 164.282 126.518 165.018 127.086C165.618 127.512 165.846 127.896 165.888 127.86C165.739 127.481 165.485 127.152 165.156 126.912C164.405 126.254 163.435 125.9 162.436 125.919C161.438 125.938 160.482 126.328 159.756 127.014C159.437 127.266 159.196 127.603 159.06 127.986Z" fill="#455A64"/>
<path d="M130.902 125.25C131.454 125.425 132.023 125.542 132.6 125.598C133.662 125.766 135.132 125.922 136.752 126.066L140.91 126.438C141.48 126.526 142.055 126.57 142.632 126.57C142.08 126.393 141.511 126.275 140.934 126.216C139.878 126.054 138.408 125.898 136.782 125.754L132.63 125.382C132.059 125.291 131.481 125.246 130.902 125.25Z" fill="#455A64"/>
<path d="M179.076 133.434C179.825 132.569 180.432 131.591 180.876 130.536C181.224 129.444 181.401 128.304 181.398 127.158C181.532 127.481 181.593 127.829 181.578 128.178C181.599 129.018 181.461 129.855 181.17 130.644C180.88 131.433 180.44 132.158 179.874 132.78C179.436 133.248 179.1 133.464 179.076 133.434Z" fill="white"/>
<path d="M180.528 123.954C180.576 123.882 180.918 124.056 181.128 124.464C181.338 124.872 181.248 125.244 181.164 125.238C181.08 125.232 181.008 124.926 180.846 124.596C180.684 124.266 180.474 124.02 180.528 123.954Z" fill="white"/>
<path d="M157.896 131.616C157.848 131.616 158.016 131.136 158.154 130.362C158.508 128.332 158.118 126.242 157.056 124.476C156.654 123.804 156.33 123.432 156.366 123.396C156.719 123.654 157.017 123.98 157.242 124.356C157.845 125.228 158.259 126.217 158.458 127.258C158.657 128.299 158.638 129.371 158.4 130.404C158.315 130.838 158.144 131.25 157.896 131.616Z" fill="white"/>
<path d="M126 138.906C126 138.906 125.874 139.086 125.694 139.416C125.436 139.885 125.3 140.411 125.298 140.946C125.288 141.334 125.359 141.72 125.506 142.079C125.652 142.438 125.872 142.764 126.15 143.034C126.486 143.368 126.895 143.617 127.346 143.762C127.796 143.907 128.275 143.943 128.742 143.868C129.206 143.772 129.642 143.57 130.014 143.278C130.387 142.985 130.687 142.61 130.89 142.182C131.054 141.83 131.144 141.449 131.156 141.061C131.167 140.673 131.099 140.287 130.956 139.926C130.767 139.427 130.458 138.982 130.056 138.63C129.768 138.384 129.576 138.282 129.588 138.258C129.786 138.309 129.971 138.403 130.128 138.534C130.586 138.867 130.943 139.319 131.16 139.842C131.334 140.229 131.424 140.648 131.424 141.072C131.424 141.496 131.334 141.915 131.16 142.302C130.954 142.784 130.631 143.208 130.22 143.534C129.81 143.861 129.324 144.08 128.808 144.173C128.292 144.266 127.761 144.229 127.262 144.066C126.764 143.903 126.313 143.618 125.952 143.238C125.653 142.938 125.421 142.578 125.271 142.182C125.121 141.786 125.057 141.363 125.082 140.94C125.103 140.375 125.279 139.827 125.592 139.356C125.802 139.026 126 138.894 126 138.906Z" fill="#E0E0E0"/>
<path d="M176.682 145.986C177.19 146.189 177.75 146.223 178.278 146.082C178.843 145.924 179.353 145.61 179.748 145.176C180.235 144.65 180.564 143.997 180.696 143.292C180.833 142.587 180.745 141.856 180.444 141.204C180.197 140.669 179.829 140.199 179.37 139.83C178.927 139.506 178.442 139.242 177.93 139.044C178.083 139.03 178.236 139.051 178.38 139.104C178.786 139.217 179.168 139.402 179.508 139.65C180.018 140.024 180.429 140.516 180.708 141.084C181.051 141.786 181.156 142.579 181.008 143.346C180.861 144.112 180.494 144.819 179.952 145.38C179.512 145.839 178.946 146.158 178.326 146.298C177.91 146.396 177.475 146.373 177.072 146.232C176.79 146.118 176.67 145.998 176.682 145.986Z" fill="#E0E0E0"/>
<path d="M143.4 265.122L152.298 267.756C152.298 267.756 157.206 269.862 159.594 270.408C162.558 271.086 164.58 270.168 164.688 268.518C164.796 266.868 162.492 266.658 162.492 266.658C160.534 265.912 158.629 265.032 156.792 264.024C155.458 263.097 154.367 261.862 153.612 260.424L156.792 260.862C156.792 260.862 163.482 265.662 166.002 267.114C168.522 268.566 169.074 266.016 169.29 265.248C169.506 264.48 161.838 256.698 161.838 256.698C161.838 256.698 169.182 261.414 170.496 262.59C171.81 263.766 173.79 264.15 174.228 263.388C174.666 262.626 175.872 262.62 174.228 259.368C172.584 256.116 159.426 247.368 159.426 247.368L163.026 246.6L166.974 248.358C167.249 249.713 167.809 250.993 168.618 252.114C170.04 254.226 172.566 252.114 172.566 252.114L171 244.014L163.2 239.13C163.2 239.13 155.088 240.12 153.882 240.666C152.676 241.212 151.356 243.51 151.356 243.51L149.166 244.398C145.764 245.382 145.878 248.784 144.78 248.892C143.682 249 111.678 242.76 111.678 242.76L108.78 242.004C103.98 245.646 102.066 251.664 101.22 257.004C101.22 257.004 100.338 259.62 101.22 261.06L143.4 265.122Z" fill="#FFBE9D"/>
<path d="M137.526 259.428C137.488 259.257 137.478 259.08 137.496 258.906C137.494 258.705 137.512 258.504 137.55 258.306C137.578 258.034 137.63 257.765 137.706 257.502C138.157 255.987 138.919 254.583 139.944 253.38C140.939 252.171 142.049 251.06 143.256 250.062C143.734 249.626 144.255 249.238 144.81 248.904C144.366 249.364 143.895 249.796 143.4 250.2C142.246 251.234 141.171 252.353 140.184 253.548C139.188 254.725 138.42 256.079 137.922 257.538C137.568 258.684 137.592 259.434 137.526 259.428Z" fill="#EB996E"/>
<path d="M151.386 243.51C151.386 243.51 151.122 243.648 150.714 243.978C150.145 244.458 149.654 245.023 149.256 245.652C148.969 246.077 148.724 246.529 148.524 247.002C148.339 247.558 148.223 248.134 148.176 248.718C148.093 249.397 147.851 250.047 147.468 250.614C147.034 251.163 146.676 251.768 146.406 252.414C145.995 253.505 145.995 254.707 146.406 255.798L146.448 255.912L146.346 255.978C144.955 256.876 143.948 258.26 143.52 259.86C143.373 260.491 143.282 261.133 143.25 261.78C143.201 261.613 143.181 261.438 143.19 261.264C143.184 260.777 143.236 260.292 143.346 259.818C143.729 258.137 144.748 256.671 146.19 255.726L146.13 255.906C145.696 254.745 145.696 253.467 146.13 252.306C146.407 251.642 146.779 251.021 147.234 250.464C147.599 249.926 147.829 249.309 147.906 248.664C147.978 247.52 148.397 246.426 149.106 245.526C149.529 244.888 150.062 244.33 150.678 243.876C150.844 243.751 151.026 243.648 151.218 243.57C151.271 243.543 151.328 243.523 151.386 243.51Z" fill="#EB996E"/>
<path d="M159.09 247.098C158.322 247.197 157.542 247.115 156.812 246.856C156.082 246.597 155.424 246.171 154.89 245.61C154.95 245.538 155.754 246.156 156.912 246.558C158.07 246.96 159.09 247.008 159.09 247.098Z" fill="#EB996E"/>
<path d="M161.142 255.96C159.983 255.635 158.857 255.205 157.776 254.676C156.653 254.245 155.569 253.719 154.536 253.104C155.692 253.438 156.818 253.867 157.902 254.388C159.025 254.819 160.109 255.345 161.142 255.96Z" fill="#EB996E"/>
<path d="M153.924 260.34C152.759 259.945 151.621 259.476 150.516 258.936C151.142 258.964 151.756 259.123 152.316 259.404C152.914 259.595 153.463 259.914 153.924 260.34Z" fill="#EB996E"/>
<path d="M160.038 256.53C159.521 256.807 159.067 257.187 158.703 257.646C158.339 258.105 158.072 258.634 157.92 259.2C157.878 259.2 157.842 258.99 157.92 258.654C158.005 258.214 158.194 257.801 158.472 257.449C158.75 257.097 159.108 256.817 159.516 256.632C159.81 256.506 160.026 256.494 160.038 256.53Z" fill="#EB996E"/>
<path d="M163.254 251.664C163.29 251.748 162.702 252.048 162.306 252.72C162.104 253.146 161.936 253.588 161.802 254.04C161.717 253.792 161.694 253.527 161.736 253.269C161.778 253.01 161.883 252.766 162.042 252.558C162.498 251.79 163.242 251.58 163.254 251.664Z" fill="#EB996E"/>
<path d="M162.348 242.85C162.318 242.85 162.198 242.712 162.108 242.424C162 242.031 162 241.617 162.108 241.224C162.213 240.836 162.42 240.484 162.708 240.204C162.924 239.994 163.104 239.922 163.122 239.952C162.836 240.371 162.604 240.825 162.432 241.302C162.343 241.813 162.315 242.333 162.348 242.85Z" fill="#EB996E"/>
<path d="M227.214 245.61C227.214 245.61 226.812 237.738 218.652 236.106C210.492 234.474 196.2 241.41 196.2 241.41L156.156 269.316L157.356 272.766L198 267.102L201.72 268.53L230.268 249.774L257.208 230.298L254.208 227.952C254.208 227.952 246.66 233.154 241.668 235.392C236.676 237.63 229.458 241.554 227.214 245.61Z" fill="#F5F5F5"/>
<path d="M155.538 273.906L189.426 252.852L225.252 247.098C225.252 247.098 227.052 249.702 230.094 249.066L259.554 228.666L260.112 229.896L202.98 270.036C202.141 270.343 201.234 270.414 200.358 270.243C199.481 270.071 198.668 269.664 198.006 269.064L155.538 273.906Z" fill="#455A64"/>
<path d="M225.252 247.098C225.171 247.186 225.078 247.263 224.976 247.326L224.148 247.926C223.428 248.442 222.39 249.192 221.148 250.14C218.604 252.03 215.148 254.724 211.416 257.778C207.684 260.832 204.33 263.67 201.93 265.74L199.068 268.2L198.288 268.86C198.204 268.944 198.109 269.016 198.006 269.076C198.006 269.076 198.078 268.98 198.246 268.818L198.984 268.11C199.632 267.51 200.574 266.634 201.762 265.584C204.126 263.472 207.444 260.616 211.194 257.55C214.944 254.484 218.394 251.82 220.992 249.972C222.276 249.042 223.338 248.322 224.082 247.836L224.94 247.284C225.038 247.213 225.143 247.15 225.252 247.098Z" fill="#263238"/>
<path d="M224.886 242.718C221.64 239.232 216.528 237.99 211.776 238.362C207.024 238.734 202.518 240.504 198.084 242.262L156.63 270.636L157.002 271.704L198.678 243.504C198.678 243.504 207.99 240.504 212.112 239.988C219 239.13 224.886 242.718 224.886 242.718Z" fill="#E0E0E0"/>
<path d="M231.39 246.45L251.322 233.004C251.322 233.004 234.99 241.5 231.39 246.45Z" fill="#E0E0E0"/>
<path d="M156.63 270.636C156.681 270.584 156.737 270.538 156.798 270.498L157.314 270.132L159.3 268.734L166.644 263.646L190.944 246.96L198 242.16C202.015 240.349 206.252 239.075 210.6 238.374C214.113 237.878 217.694 238.383 220.932 239.832C222.143 240.395 223.258 241.144 224.238 242.052C224.971 242.735 225.594 243.526 226.086 244.398C226.395 244.945 226.637 245.527 226.806 246.132C226.848 246.33 226.884 246.486 226.914 246.606C226.927 246.659 226.937 246.713 226.944 246.768C226.728 245.959 226.41 245.18 225.996 244.452C225.492 243.603 224.865 242.832 224.136 242.166C223.154 241.286 222.045 240.558 220.848 240.006C217.641 238.612 214.109 238.138 210.648 238.638C206.335 239.345 202.131 240.609 198.144 242.4H198.174L191.118 247.2L166.8 263.826L159.396 268.836L157.38 270.18L156.846 270.528C156.778 270.571 156.706 270.608 156.63 270.636Z" fill="#263238"/>
<path d="M192.918 249.186C193.012 249.108 193.118 249.043 193.23 248.994C193.44 248.88 193.752 248.706 194.154 248.502C194.964 248.082 196.146 247.494 197.634 246.822C201.492 245.013 205.587 243.759 209.796 243.096C214.027 242.457 218.351 242.853 222.396 244.248C223.612 244.687 224.78 245.247 225.882 245.922C226.278 246.15 226.56 246.372 226.758 246.522C226.863 246.587 226.961 246.661 227.052 246.744C227.052 246.744 226.614 246.492 225.822 246.042C224.706 245.415 223.535 244.891 222.324 244.476C218.297 243.155 214.017 242.796 209.826 243.426C205.647 244.087 201.574 245.297 197.712 247.026C196.218 247.674 195.024 248.226 194.196 248.616L193.248 249.054C193.143 249.109 193.032 249.153 192.918 249.186Z" fill="#263238"/>
<path d="M256.14 229.452C256.14 229.452 256.056 229.53 255.882 229.65L255.108 230.166L252.234 232.014C249.798 233.574 246.444 235.728 242.766 238.152C239.088 240.576 235.8 242.802 233.4 244.422L230.562 246.33L229.782 246.84C229.695 246.904 229.6 246.956 229.5 246.996C229.574 246.918 229.657 246.847 229.746 246.786L230.496 246.228C231.144 245.748 232.092 245.07 233.274 244.236C235.638 242.574 238.926 240.312 242.61 237.888C246.294 235.464 249.672 233.34 252.132 231.828C253.362 231.072 254.364 230.472 255.06 230.064L255.87 229.596C255.955 229.54 256.046 229.492 256.14 229.452Z" fill="#263238"/>
<path d="M238.008 251.028C237.601 252.008 237.084 252.938 236.466 253.8C235.698 254.712 233.19 255.984 232.992 257.718C232.794 259.452 233.202 263.52 230.49 266.616C228.742 268.542 226.53 269.988 224.064 270.816L213.366 269.772L196.278 263.046C195.896 262.949 195.567 262.707 195.363 262.37C195.159 262.033 195.095 261.629 195.186 261.246C195.292 260.829 195.52 260.454 195.84 260.167C196.161 259.881 196.56 259.696 196.986 259.638L197.394 259.572C197.394 259.572 196.41 258.768 197.82 257.358C199.02 256.158 201.582 256.836 202.902 257.274C204.222 257.712 211.962 260.946 213.348 261.444C214.578 261.882 215.526 262.272 215.526 262.272C215.526 262.272 205.62 255.588 205.482 254.712C205.32 253.662 205.428 253.182 206.442 252.45C207.642 251.58 209.61 252.51 211.518 253.314C212.94 253.914 222.006 258.39 222.006 258.39C222.006 258.39 222.414 257.994 222.006 257.19C221.598 256.386 218.586 252.51 218.112 251.79C217.638 251.07 217.512 250.662 217.986 250.056C218.646 249.198 220.386 248.79 221.988 250.254C223.002 251.19 226.608 253.614 226.608 253.614L243.252 241.47C243.252 241.47 245.322 241.416 244.602 244.302C243.882 247.188 238.008 251.028 238.008 251.028Z" fill="#FFBE9D"/>
<path d="M225.6 261.15C224.934 261.002 224.314 260.696 223.792 260.257C223.269 259.818 222.861 259.26 222.6 258.63C222.678 258.582 223.164 259.326 223.992 260.016C224.82 260.706 225.642 261.06 225.6 261.15Z" fill="#EB996E"/>
<path d="M226.968 253.908C226.968 253.872 227.19 253.806 227.568 253.854C228.04 253.922 228.483 254.119 228.85 254.423C229.218 254.727 229.494 255.126 229.65 255.576C229.764 255.924 229.746 256.176 229.704 256.176C229.453 255.616 229.094 255.11 228.648 254.688C228.144 254.321 227.573 254.056 226.968 253.908Z" fill="#EB996E"/>
<path d="M227.754 257.25C227.664 257.25 227.622 256.356 227.268 255.336C226.914 254.316 226.416 253.566 226.488 253.536C227.015 253.985 227.39 254.587 227.562 255.258C227.83 255.886 227.897 256.582 227.754 257.25Z" fill="#EB996E"/>
<path d="M237.6 250.164C237.6 250.194 237.39 250.074 237.174 249.786C236.9 249.404 236.729 248.957 236.676 248.49C236.624 248.023 236.692 247.55 236.874 247.116C237.018 246.792 237.18 246.63 237.21 246.654C236.996 247.229 236.92 247.846 236.988 248.455C237.056 249.065 237.265 249.65 237.6 250.164Z" fill="#EB996E"/>
<path d="M222.558 265.338C222.173 265.426 221.773 265.426 221.388 265.338C220.456 265.173 219.561 264.84 218.748 264.354C217.939 263.878 217.177 263.326 216.474 262.704C216.161 262.474 215.884 262.199 215.652 261.888C215.997 262.061 216.32 262.277 216.612 262.53C217.343 263.095 218.109 263.614 218.904 264.084C219.691 264.55 220.542 264.9 221.43 265.122C222.114 265.266 222.558 265.29 222.558 265.338Z" fill="#EB996E"/>
<path d="M225.342 263.622C225.426 263.622 225.432 264.222 224.928 264.72C224.424 265.218 223.812 265.194 223.824 265.11C223.836 265.026 224.298 264.906 224.706 264.51C225.114 264.114 225.252 263.61 225.342 263.622Z" fill="#EB996E"/>
<path d="M229.428 260.622C229.464 260.622 229.464 260.784 229.35 261C229.192 261.266 228.955 261.476 228.672 261.6C228.391 261.737 228.074 261.783 227.766 261.732C227.526 261.684 227.406 261.588 227.424 261.552C227.442 261.516 227.976 261.6 228.54 261.318C229.104 261.036 229.344 260.592 229.428 260.622Z" fill="#EB996E"/>
<path d="M215.016 267.432C214.986 267.51 211.008 265.854 206.136 263.724C201.264 261.594 197.34 259.8 197.4 259.728C197.46 259.656 201.414 261.312 206.286 263.442C211.158 265.572 215.052 267.354 215.016 267.432Z" fill="#EB996E"/>
<path d="M285.096 272.784C285.096 272.868 224.604 272.94 150.006 272.94C75.408 272.94 14.904 272.868 14.904 272.784C14.904 272.7 75.384 272.628 150.006 272.628C224.628 272.628 285.096 272.694 285.096 272.784Z" fill="#263238"/>
<path d="M22.632 208.866L35.652 272.784H148.662C149.26 272.784 149.834 272.546 150.257 272.123C150.68 271.7 150.918 271.126 150.918 270.528C150.919 270.231 150.861 269.937 150.748 269.663C150.635 269.388 150.469 269.139 150.259 268.929C150.05 268.719 149.801 268.552 149.527 268.438C149.253 268.325 148.959 268.266 148.662 268.266H125.91L113.838 208.8C113.726 208.245 113.426 207.746 112.989 207.386C112.552 207.026 112.004 206.829 111.438 206.826L25.08 205.902C24.7115 205.898 24.3468 205.977 24.0126 206.132C23.6784 206.287 23.3832 206.516 23.1485 206.8C22.9139 207.084 22.7457 207.417 22.6563 207.774C22.5669 208.132 22.5586 208.505 22.632 208.866Z" fill="#E0E0E0"/>
<path d="M22.632 208.866L22.596 208.674C22.5716 208.475 22.5716 208.273 22.596 208.074C22.6386 207.692 22.7691 207.324 22.9773 207C23.1855 206.677 23.4657 206.405 23.796 206.208C24.0254 206.067 24.2769 205.966 24.54 205.908C24.8333 205.859 25.1309 205.841 25.428 205.854H27.462L32.55 205.896L65.208 206.202L87.972 206.436L100.728 206.562L107.412 206.634L110.832 206.67C111.126 206.67 111.396 206.67 111.708 206.67C112.013 206.704 112.309 206.792 112.584 206.928C113.138 207.198 113.576 207.658 113.82 208.224C113.932 208.504 114.013 208.796 114.06 209.094L114.234 209.952C114.348 210.552 114.468 211.104 114.588 211.68C114.82 212.836 115.056 214 115.296 215.172C115.772 217.512 116.254 219.882 116.742 222.282C117.718 227.082 118.718 231.988 119.742 237C121.776 247.02 123.9 257.442 126.078 268.2L125.928 268.08H148.302C148.597 268.069 148.893 268.087 149.184 268.134C149.785 268.263 150.313 268.617 150.66 269.124C151.011 269.629 151.155 270.25 151.062 270.858C151.007 271.226 150.868 271.577 150.654 271.882C150.441 272.187 150.159 272.438 149.832 272.616C149.502 272.792 149.137 272.89 148.764 272.904H88.71H35.652H35.556V272.808C31.572 253.158 28.356 237.18 26.094 226.104C24.978 220.572 24.114 216.264 23.526 213.336C23.238 211.872 23.018 210.762 22.866 210.006C22.716 209.25 22.65 208.866 22.65 208.866C22.65 208.866 22.74 209.25 22.896 209.994C23.052 210.738 23.292 211.866 23.592 213.318C24.192 216.246 25.086 220.548 26.226 226.08C28.494 237.15 31.764 253.122 35.79 272.76L35.67 272.664L88.728 272.634H148.74C149.062 272.621 149.378 272.537 149.664 272.388C149.948 272.232 150.192 272.013 150.378 271.748C150.565 271.482 150.688 271.178 150.738 270.858C150.815 270.326 150.691 269.785 150.39 269.34C150.083 268.902 149.622 268.596 149.1 268.482C148.83 268.441 148.557 268.425 148.284 268.434H125.784V268.314C123.606 257.568 121.488 247.146 119.46 237.114C118.44 232.098 117.44 227.19 116.46 222.39L115.02 215.28C114.786 214.11 114.546 212.946 114.312 211.794C114.198 211.194 114.078 210.636 113.964 210.066L113.79 209.202C113.745 208.924 113.673 208.65 113.574 208.386C113.409 208.007 113.147 207.679 112.814 207.434C112.481 207.19 112.089 207.038 111.678 206.994C111.414 206.994 111.114 206.994 110.832 206.994L107.412 206.952L100.722 206.88L87.972 206.73L65.202 206.46L32.544 206.058L27.462 205.992L25.428 205.962C25.1351 205.944 24.8412 205.96 24.552 206.01C24.2942 206.063 24.0469 206.159 23.82 206.292C23.4963 206.481 23.22 206.741 23.0121 207.053C22.8042 207.365 22.6701 207.721 22.62 208.092C22.5962 208.35 22.6002 208.609 22.632 208.866Z" fill="#263238"/>
<path d="M70.974 241.848C73.0351 241.848 74.706 240.177 74.706 238.116C74.706 236.055 73.0351 234.384 70.974 234.384C68.9129 234.384 67.242 236.055 67.242 238.116C67.242 240.177 68.9129 241.848 70.974 241.848Z" fill="white"/>
<path d="M22.74 209.4C22.74 209.4 22.872 209.4 23.13 209.4H28.662L44.82 209.478L98.13 209.85L105.84 209.916H107.736C108.059 209.904 108.383 209.924 108.702 209.976C109.19 210.075 109.641 210.308 110.006 210.648C110.37 210.988 110.633 211.422 110.766 211.902C110.91 212.502 111.012 213.102 111.138 213.702L113.892 227.586C115.638 236.436 117.216 244.386 118.536 251.1C119.856 257.814 120.936 263.202 121.644 266.952C122.004 268.818 122.28 270.27 122.472 271.266C122.562 271.752 122.634 272.13 122.682 272.394C122.73 272.658 122.742 272.778 122.742 272.778C122.742 272.778 122.706 272.652 122.652 272.4C122.598 272.148 122.514 271.764 122.412 271.278L121.524 267C120.768 263.25 119.676 257.844 118.32 251.166C116.964 244.488 115.38 236.508 113.61 227.664C112.728 223.242 111.81 218.598 110.838 213.786C110.712 213.186 110.604 212.586 110.472 211.986C110.314 211.416 109.95 210.925 109.452 210.606C109.205 210.448 108.93 210.338 108.642 210.282C108.341 210.233 108.035 210.215 107.73 210.228H105.84L98.13 210.168L44.82 209.7L28.662 209.52L24.27 209.4H23.124H22.74Z" fill="#263238"/>
</svg>
