<svg width="300" height="300" viewBox="0 0 300 300" fill="none" xmlns="http://www.w3.org/2000/svg">
<path d="M88.116 59.058C88.116 59.058 56.016 81.996 52.758 123.672C49.5 165.348 73.728 203.916 92.532 235.68C111.336 267.444 144.774 279.168 173.484 265.14C202.194 251.112 193.962 222.75 215.244 190.182C236.526 157.614 247.128 152.166 247.224 113.238C247.32 74.31 207.36 40.158 160.8 39.348C114.24 38.538 88.116 59.058 88.116 59.058Z" fill="#EDF1FC"/>
<path d="M130.23 60.474H140.196" stroke="#263238" stroke-width="1.2" stroke-miterlimit="10"/>
<path d="M134.904 58.602L133.344 63.276C133.344 63.276 86.622 68.262 82.572 61.404C78.522 54.546 85.38 52.062 101.574 54.552C117.768 57.042 134.904 58.602 134.904 58.602Z" fill="white" stroke="#263238" stroke-width="0.6" stroke-miterlimit="10"/>
<path d="M170.52 60.474H160.554" stroke="#263238" stroke-width="1.2" stroke-miterlimit="10"/>
<path d="M165.846 58.602L167.406 63.276C167.406 63.276 214.128 68.262 218.172 61.404C222.216 54.546 215.4 52.062 199.2 54.552C183 57.042 165.846 58.602 165.846 58.602Z" fill="white" stroke="#263238" stroke-width="0.6" stroke-miterlimit="10"/>
<path d="M144.6 69.63C144.6 69.63 142.842 79.692 146.004 80.64C149.166 81.588 156.708 81.378 158.808 78.57C160.908 75.762 159.498 72.954 157.17 68.73C154.842 64.506 148.728 64.254 144.6 69.63Z" fill="white" stroke="#263238" stroke-width="0.6" stroke-miterlimit="10"/>
<path d="M148.944 30.576V62.118H151.782V31.998" fill="white"/>
<path d="M148.944 30.576V62.118H151.782V31.998" stroke="#263238" stroke-width="0.6" stroke-miterlimit="10"/>
<path d="M141.87 64.05C147.551 65.85 153.649 65.85 159.33 64.05H163.8V60C163.8 57 157.89 54.6 150.6 54.6C143.31 54.6 137.4 57 137.4 60V64.05H141.87Z" fill="white" stroke="#263238" stroke-width="0.6" stroke-miterlimit="10"/>
<path d="M150.6 69.45C157.89 69.45 163.8 67.0323 163.8 64.05C163.8 61.0677 157.89 58.65 150.6 58.65C143.31 58.65 137.4 61.0677 137.4 64.05C137.4 67.0323 143.31 69.45 150.6 69.45Z" fill="white" stroke="#263238" stroke-width="0.6" stroke-miterlimit="10"/>
<path d="M150.6 69.45C157.89 69.45 163.8 67.0323 163.8 64.05C163.8 61.0677 157.89 58.65 150.6 58.65C143.31 58.65 137.4 61.0677 137.4 64.05C137.4 67.0323 143.31 69.45 150.6 69.45Z" fill="white" stroke="#263238" stroke-width="0.6" stroke-miterlimit="10"/>
<path d="M197.508 171.516H188.982V195.36H197.508V171.516Z" fill="#A8A8A8"/>
<path d="M195.378 173.472H191.118V187.644H195.378V173.472Z" fill="#8C8C8C"/>
<path d="M193.248 193.284C193.947 193.284 194.514 192.717 194.514 192.018C194.514 191.319 193.947 190.752 193.248 190.752C192.549 190.752 191.982 191.319 191.982 192.018C191.982 192.717 192.549 193.284 193.248 193.284Z" fill="#8C8C8C"/>
<path d="M209.682 171.516H201.156V195.36H209.682V171.516Z" fill="#8C8C8C"/>
<path d="M207.546 173.472H203.286V187.644H207.546V173.472Z" fill="#A8A8A8"/>
<path d="M205.422 193.284C206.121 193.284 206.688 192.717 206.688 192.018C206.688 191.319 206.121 190.752 205.422 190.752C204.723 190.752 204.156 191.319 204.156 192.018C204.156 192.717 204.723 193.284 205.422 193.284Z" fill="#A8A8A8"/>
<path d="M221.856 171.516H213.33V195.36H221.856V171.516Z" fill="#8C8C8C"/>
<path d="M219.72 173.472H215.46V187.644H219.72V173.472Z" fill="#A8A8A8"/>
<path d="M218.862 192C218.862 191.748 218.787 191.502 218.647 191.293C218.507 191.083 218.308 190.92 218.075 190.824C217.843 190.728 217.587 190.703 217.34 190.753C217.093 190.802 216.866 190.924 216.688 191.103C216.511 191.281 216.39 191.508 216.342 191.756C216.293 192.003 216.319 192.259 216.417 192.491C216.514 192.723 216.678 192.922 216.888 193.061C217.098 193.2 217.344 193.273 217.596 193.272C217.932 193.27 218.254 193.136 218.492 192.897C218.729 192.659 218.862 192.336 218.862 192Z" fill="#A8A8A8"/>
<path d="M234.03 171.516H225.504V195.36H234.03V171.516Z" fill="#A8A8A8"/>
<path d="M231.894 173.472H227.634V187.644H231.894V173.472Z" fill="#8C8C8C"/>
<path d="M231.036 192C231.036 191.748 230.961 191.503 230.822 191.293C230.682 191.084 230.483 190.921 230.251 190.825C230.018 190.729 229.763 190.703 229.516 190.752C229.269 190.802 229.042 190.923 228.865 191.101C228.687 191.278 228.566 191.505 228.516 191.752C228.467 191.999 228.493 192.254 228.589 192.487C228.685 192.719 228.848 192.918 229.057 193.058C229.266 193.197 229.512 193.272 229.764 193.272C230.101 193.272 230.425 193.138 230.663 192.899C230.902 192.661 231.036 192.337 231.036 192Z" fill="#8C8C8C"/>
<path d="M247.89 110.754V109.026H244.662V102.6H242.13V109.026H185.454V102.6H182.922V109.026H178.656V110.754H182.922V137.706H178.656V139.434H182.922V166.392H178.656V168.12H182.922V195.072H178.656V196.8H182.922V226.308H185.454V196.8H242.13V226.308H244.662V196.8H247.89V195.072H244.662V168.12H247.89V166.392H244.662V139.434H247.89V137.706H244.662V110.754H247.89ZM242.13 195.072H185.454V168.12H242.13V195.072ZM242.13 166.392H185.454V139.434H242.13V166.392ZM242.13 137.706H185.454V110.754H242.13V137.706Z" fill="#A8A8A8"/>
<path d="M226.56 113.862H218.034V137.706H226.56V113.862Z" fill="#8C8C8C"/>
<path d="M224.424 115.818H220.164V129.99H224.424V115.818Z" fill="#8C8C8C"/>
<path d="M223.566 134.364C223.566 134.112 223.491 133.866 223.351 133.657C223.211 133.447 223.012 133.284 222.779 133.188C222.547 133.092 222.291 133.067 222.044 133.117C221.797 133.166 221.57 133.288 221.392 133.467C221.215 133.645 221.094 133.872 221.046 134.12C220.997 134.367 221.023 134.623 221.121 134.855C221.218 135.087 221.382 135.286 221.592 135.425C221.802 135.564 222.048 135.637 222.3 135.636C222.636 135.634 222.958 135.5 223.196 135.261C223.433 135.023 223.566 134.7 223.566 134.364Z" fill="#8C8C8C"/>
<path d="M216.558 113.862H208.032V137.706H216.558V113.862Z" fill="#8C8C8C"/>
<path d="M214.428 115.818H210.168V129.99H214.428V115.818Z" fill="#8C8C8C"/>
<path d="M212.298 135.63C212.997 135.63 213.564 135.063 213.564 134.364C213.564 133.665 212.997 133.098 212.298 133.098C211.599 133.098 211.032 133.665 211.032 134.364C211.032 135.063 211.599 135.63 212.298 135.63Z" fill="#8C8C8C"/>
<path d="M206.562 113.862H198.036V137.706H206.562V113.862Z" fill="#A8A8A8"/>
<path d="M204.426 115.818H200.166V129.99H204.426V115.818Z" fill="#8C8C8C"/>
<path d="M202.296 135.63C202.995 135.63 203.562 135.063 203.562 134.364C203.562 133.665 202.995 133.098 202.296 133.098C201.597 133.098 201.03 133.665 201.03 134.364C201.03 135.063 201.597 135.63 202.296 135.63Z" fill="#8C8C8C"/>
<path d="M238.308 113.862H229.782V137.706H238.308V113.862Z" fill="#8C8C8C"/>
<path d="M236.178 115.818H231.918V129.99H236.178V115.818Z" fill="#8C8C8C"/>
<path d="M234.048 135.63C234.747 135.63 235.314 135.063 235.314 134.364C235.314 133.665 234.747 133.098 234.048 133.098C233.349 133.098 232.782 133.665 232.782 134.364C232.782 135.063 233.349 135.63 234.048 135.63Z" fill="#8C8C8C"/>
<path d="M195.912 113.862H187.386V137.706H195.912V113.862Z" fill="#A8A8A8"/>
<path d="M193.776 115.818H189.516V129.99H193.776V115.818Z" fill="#8C8C8C"/>
<path d="M191.646 135.63C192.345 135.63 192.912 135.063 192.912 134.364C192.912 133.665 192.345 133.098 191.646 133.098C190.947 133.098 190.38 133.665 190.38 134.364C190.38 135.063 190.947 135.63 191.646 135.63Z" fill="#8C8C8C"/>
<path d="M230.274 101.622H204.648C205.505 102.622 205.961 103.905 205.926 105.222C205.958 106.539 205.503 107.821 204.648 108.822H230.274C231.229 108.822 232.144 108.443 232.82 107.768C233.495 107.092 233.874 106.177 233.874 105.222C233.874 104.267 233.495 103.352 232.82 102.676C232.144 102.001 231.229 101.622 230.274 101.622Z" fill="#D4D4D4" stroke="white" stroke-width="0.6" stroke-miterlimit="10"/>
<path d="M231.282 101.766V108.6C232.02 108.379 232.668 107.927 233.131 107.31C233.593 106.694 233.845 105.945 233.85 105.174C233.841 104.406 233.587 103.662 233.125 103.049C232.663 102.435 232.017 101.986 231.282 101.766Z" fill="#9C9C9C" stroke="white" stroke-width="0.6" stroke-miterlimit="10"/>
<path d="M230.274 94.02H204.648C205.503 95.0214 205.958 96.3035 205.926 97.62C205.958 98.9365 205.503 100.219 204.648 101.22H230.274C231.229 101.22 232.144 100.841 232.82 100.166C233.495 99.4905 233.874 98.5748 233.874 97.62C233.874 96.6652 233.495 95.7495 232.82 95.0744C232.144 94.3993 231.229 94.02 230.274 94.02Z" fill="#D4D4D4" stroke="white" stroke-width="0.6" stroke-miterlimit="10"/>
<path d="M231.282 94.164V101.028C232.021 100.807 232.67 100.354 233.132 99.7359C233.595 99.1179 233.846 98.3678 233.85 97.596C233.846 96.8242 233.595 96.0741 233.132 95.4561C232.67 94.8382 232.021 94.3852 231.282 94.164Z" fill="#9C9C9C" stroke="white" stroke-width="0.6" stroke-miterlimit="10"/>
<path d="M204.312 84.264H195.786V108.108H204.312V84.264Z" fill="#A8A8A8"/>
<path d="M202.176 86.22H197.916V100.392H202.176V86.22Z" fill="#A8A8A8"/>
<path d="M201.312 104.766C201.312 104.516 201.238 104.271 201.099 104.063C200.96 103.854 200.762 103.692 200.53 103.596C200.299 103.501 200.045 103.475 199.799 103.524C199.553 103.573 199.328 103.694 199.151 103.871C198.974 104.048 198.853 104.273 198.804 104.519C198.755 104.765 198.781 105.019 198.876 105.25C198.972 105.482 199.134 105.68 199.343 105.819C199.551 105.958 199.796 106.032 200.046 106.032C200.212 106.033 200.377 106.001 200.531 105.937C200.685 105.874 200.825 105.781 200.943 105.663C201.061 105.545 201.154 105.405 201.217 105.251C201.281 105.097 201.313 104.932 201.312 104.766Z" fill="#A8A8A8"/>
<path d="M238.308 142.314H229.782V166.158H238.308V142.314Z" fill="#A8A8A8"/>
<path d="M236.178 144.276H231.918V158.448H236.178V144.276Z" fill="#8C8C8C"/>
<path d="M235.314 162.822C235.314 162.572 235.24 162.327 235.101 162.119C234.962 161.91 234.764 161.748 234.532 161.652C234.301 161.557 234.047 161.531 233.801 161.58C233.555 161.629 233.33 161.75 233.153 161.927C232.976 162.104 232.855 162.329 232.806 162.575C232.757 162.821 232.783 163.075 232.878 163.306C232.974 163.538 233.136 163.736 233.345 163.875C233.553 164.014 233.798 164.088 234.048 164.088C234.383 164.086 234.704 163.953 234.941 163.715C235.179 163.478 235.312 163.157 235.314 162.822Z" fill="#8C8C8C"/>
<path d="M228.426 142.314H219.9V166.158H228.426V142.314Z" fill="#A8A8A8"/>
<path d="M226.29 144.276H222.03V158.448H226.29V144.276Z" fill="#8C8C8C"/>
<path d="M225.426 162.822C225.426 162.572 225.352 162.327 225.213 162.119C225.074 161.91 224.876 161.748 224.644 161.652C224.413 161.557 224.159 161.531 223.913 161.58C223.667 161.629 223.442 161.75 223.265 161.927C223.088 162.104 222.967 162.329 222.918 162.575C222.869 162.821 222.895 163.075 222.99 163.306C223.086 163.538 223.248 163.736 223.457 163.875C223.665 164.014 223.91 164.088 224.16 164.088C224.326 164.088 224.491 164.055 224.644 163.992C224.798 163.928 224.938 163.835 225.055 163.717C225.173 163.6 225.266 163.46 225.33 163.306C225.393 163.153 225.426 162.988 225.426 162.822Z" fill="#8C8C8C"/>
<path d="M208.026 142.314H199.5V166.158H208.026V142.314Z" fill="#A8A8A8"/>
<path d="M205.89 144.276H201.63V158.448H205.89V144.276Z" fill="#8C8C8C"/>
<path d="M205.026 162.822C205.026 162.572 204.952 162.327 204.813 162.119C204.674 161.91 204.476 161.748 204.244 161.652C204.013 161.557 203.759 161.531 203.513 161.58C203.267 161.629 203.042 161.75 202.865 161.927C202.688 162.104 202.567 162.329 202.518 162.575C202.469 162.821 202.495 163.075 202.59 163.306C202.686 163.538 202.848 163.736 203.057 163.875C203.265 164.014 203.51 164.088 203.76 164.088C203.926 164.088 204.091 164.055 204.244 163.992C204.398 163.928 204.538 163.835 204.655 163.717C204.773 163.6 204.866 163.46 204.93 163.306C204.993 163.153 205.026 162.988 205.026 162.822Z" fill="#8C8C8C"/>
<path d="M218.538 142.314H210.012V166.158H218.538V142.314Z" fill="#A8A8A8"/>
<path d="M216.402 144.276H212.142V158.448H216.402V144.276Z" fill="#8C8C8C"/>
<path d="M215.538 162.822C215.538 162.572 215.464 162.327 215.325 162.119C215.186 161.91 214.988 161.748 214.756 161.652C214.525 161.557 214.271 161.531 214.025 161.58C213.779 161.629 213.554 161.75 213.377 161.927C213.2 162.104 213.079 162.329 213.03 162.575C212.981 162.821 213.007 163.075 213.102 163.306C213.198 163.538 213.36 163.736 213.569 163.875C213.777 164.014 214.022 164.088 214.272 164.088C214.438 164.088 214.603 164.055 214.756 163.992C214.91 163.928 215.05 163.835 215.167 163.717C215.285 163.6 215.378 163.46 215.442 163.306C215.505 163.153 215.538 162.988 215.538 162.822Z" fill="#8C8C8C"/>
<path d="M128.916 171.516H120.39V195.36H128.916V171.516Z" fill="#A8A8A8"/>
<path d="M126.78 173.472H122.52V187.644H126.78V173.472Z" fill="#A8A8A8"/>
<path d="M124.65 193.284C125.349 193.284 125.916 192.717 125.916 192.018C125.916 191.319 125.349 190.752 124.65 190.752C123.951 190.752 123.384 191.319 123.384 192.018C123.384 192.717 123.951 193.284 124.65 193.284Z" fill="#A8A8A8"/>
<path d="M141.084 171.516H132.558V195.36H141.084V171.516Z" fill="#A8A8A8"/>
<path d="M138.954 173.472H134.694V187.644H138.954V173.472Z" fill="#A8A8A8"/>
<path d="M136.824 193.284C137.523 193.284 138.09 192.717 138.09 192.018C138.09 191.319 137.523 190.752 136.824 190.752C136.125 190.752 135.558 191.319 135.558 192.018C135.558 192.717 136.125 193.284 136.824 193.284Z" fill="#A8A8A8"/>
<path d="M153.258 171.516H144.732V195.36H153.258V171.516Z" fill="#A8A8A8"/>
<path d="M151.128 173.472H146.868V187.644H151.128V173.472Z" fill="#A8A8A8"/>
<path d="M148.998 193.284C149.697 193.284 150.264 192.717 150.264 192.018C150.264 191.319 149.697 190.752 148.998 190.752C148.299 190.752 147.732 191.319 147.732 192.018C147.732 192.717 148.299 193.284 148.998 193.284Z" fill="#A8A8A8"/>
<path d="M165.432 171.516H156.906V195.36H165.432V171.516Z" fill="#A8A8A8"/>
<path d="M163.296 173.472H159.036V187.644H163.296V173.472Z" fill="#A8A8A8"/>
<path d="M162.438 192C162.438 191.748 162.363 191.502 162.223 191.293C162.083 191.083 161.884 190.92 161.651 190.824C161.419 190.728 161.163 190.703 160.916 190.753C160.669 190.802 160.442 190.924 160.264 191.103C160.087 191.281 159.966 191.508 159.918 191.756C159.869 192.003 159.895 192.259 159.993 192.491C160.09 192.723 160.254 192.922 160.464 193.061C160.674 193.2 160.92 193.273 161.172 193.272C161.508 193.27 161.83 193.136 162.068 192.897C162.305 192.659 162.438 192.336 162.438 192Z" fill="#A8A8A8"/>
<path d="M116.856 102.6H114.324V226.308H116.856V102.6Z" fill="#A8A8A8"/>
<path d="M176.064 102.6H173.532V226.308H176.064V102.6Z" fill="#A8A8A8"/>
<path d="M179.292 109.026H110.058V110.754H179.292V109.026Z" fill="#A8A8A8"/>
<path d="M179.292 137.706H110.058V139.434H179.292V137.706Z" fill="#A8A8A8"/>
<path d="M179.292 166.392H110.058V168.12H179.292V166.392Z" fill="#A8A8A8"/>
<path d="M179.292 195.072H110.058V196.8H179.292V195.072Z" fill="#A8A8A8"/>
<path d="M157.962 113.862H149.436V137.706H157.962V113.862Z" fill="#A8A8A8"/>
<path d="M155.826 115.818H151.566V129.99H155.826V115.818Z" fill="#A8A8A8"/>
<path d="M154.968 134.364C154.968 134.112 154.893 133.866 154.753 133.657C154.613 133.447 154.414 133.284 154.181 133.188C153.949 133.092 153.693 133.067 153.446 133.117C153.199 133.166 152.972 133.288 152.794 133.467C152.617 133.645 152.496 133.872 152.448 134.12C152.399 134.367 152.425 134.623 152.523 134.855C152.62 135.087 152.784 135.286 152.994 135.425C153.204 135.564 153.45 135.637 153.702 135.636C154.038 135.634 154.36 135.5 154.598 135.261C154.835 135.023 154.968 134.7 154.968 134.364Z" fill="#A8A8A8"/>
<path d="M147.966 113.862H139.44V137.706H147.966V113.862Z" fill="#A8A8A8"/>
<path d="M145.83 115.818H141.57V129.99H145.83V115.818Z" fill="#8C8C8C"/>
<path d="M143.7 135.63C144.399 135.63 144.966 135.063 144.966 134.364C144.966 133.665 144.399 133.098 143.7 133.098C143.001 133.098 142.434 133.665 142.434 134.364C142.434 135.063 143.001 135.63 143.7 135.63Z" fill="#8C8C8C"/>
<path d="M137.964 113.862H129.438V137.706H137.964V113.862Z" fill="#A8A8A8"/>
<path d="M135.828 115.818H131.568V129.99H135.828V115.818Z" fill="#8C8C8C"/>
<path d="M133.698 135.63C134.397 135.63 134.964 135.063 134.964 134.364C134.964 133.665 134.397 133.098 133.698 133.098C132.999 133.098 132.432 133.665 132.432 134.364C132.432 135.063 132.999 135.63 133.698 135.63Z" fill="#8C8C8C"/>
<path d="M169.716 113.862H161.19V137.706H169.716V113.862Z" fill="#A8A8A8"/>
<path d="M167.58 115.818H163.32V129.99H167.58V115.818Z" fill="#8C8C8C"/>
<path d="M165.45 135.63C166.149 135.63 166.716 135.063 166.716 134.364C166.716 133.665 166.149 133.098 165.45 133.098C164.751 133.098 164.184 133.665 164.184 134.364C164.184 135.063 164.751 135.63 165.45 135.63Z" fill="#A8A8A8"/>
<path d="M127.314 113.862H118.788V137.706H127.314V113.862Z" fill="#A8A8A8"/>
<path d="M125.178 115.818H120.918V129.99H125.178V115.818Z" fill="#8C8C8C"/>
<path d="M123.048 135.63C123.747 135.63 124.314 135.063 124.314 134.364C124.314 133.665 123.747 133.098 123.048 133.098C122.349 133.098 121.782 133.665 121.782 134.364C121.782 135.063 122.349 135.63 123.048 135.63Z" fill="#8C8C8C"/>
<path d="M127.314 85.062H118.788V108.906H127.314V85.062Z" fill="#A8A8A8"/>
<path d="M125.178 87.018H120.918V101.19H125.178V87.018Z" fill="#8C8C8C"/>
<path d="M123.048 106.83C123.747 106.83 124.314 106.263 124.314 105.564C124.314 104.865 123.747 104.298 123.048 104.298C122.349 104.298 121.782 104.865 121.782 105.564C121.782 106.263 122.349 106.83 123.048 106.83Z" fill="#8C8C8C"/>
<path d="M136.68 85.062H128.154V108.906H136.68V85.062Z" fill="#A8A8A8"/>
<path d="M134.55 87.018H130.29V101.19H134.55V87.018Z" fill="#8C8C8C"/>
<path d="M132.42 106.83C133.119 106.83 133.686 106.263 133.686 105.564C133.686 104.865 133.119 104.298 132.42 104.298C131.721 104.298 131.154 104.865 131.154 105.564C131.154 106.263 131.721 106.83 132.42 106.83Z" fill="#8C8C8C"/>
<path d="M160.872 109.38V100.854H137.028V109.38H160.872Z" fill="#A8A8A8"/>
<path d="M158.916 107.244V102.984H144.75V107.244H158.916Z" fill="#8C8C8C"/>
<path d="M140.4 106.38C140.65 106.38 140.895 106.306 141.103 106.167C141.312 106.028 141.474 105.83 141.57 105.598C141.665 105.367 141.691 105.113 141.642 104.867C141.593 104.621 141.472 104.396 141.295 104.219C141.118 104.042 140.893 103.921 140.647 103.872C140.401 103.823 140.147 103.849 139.916 103.944C139.684 104.04 139.486 104.202 139.347 104.411C139.208 104.619 139.134 104.864 139.134 105.114C139.136 105.449 139.269 105.77 139.507 106.007C139.744 106.245 140.065 106.378 140.4 106.38Z" fill="#8C8C8C"/>
<path d="M169.716 142.314H161.19V166.158H169.716V142.314Z" fill="#A8A8A8"/>
<path d="M167.58 144.276H163.32V158.448H167.58V144.276Z" fill="#A8A8A8"/>
<path d="M166.716 162.822C166.716 162.572 166.642 162.327 166.503 162.119C166.364 161.91 166.166 161.748 165.934 161.652C165.703 161.557 165.449 161.531 165.203 161.58C164.957 161.629 164.732 161.75 164.555 161.927C164.378 162.104 164.257 162.329 164.208 162.575C164.159 162.821 164.185 163.075 164.28 163.306C164.376 163.538 164.538 163.736 164.747 163.875C164.955 164.014 165.2 164.088 165.45 164.088C165.616 164.088 165.781 164.055 165.934 163.992C166.088 163.928 166.228 163.835 166.345 163.717C166.463 163.6 166.556 163.46 166.62 163.306C166.683 163.153 166.716 162.988 166.716 162.822Z" fill="#A8A8A8"/>
<path d="M159.828 142.314H151.302V166.158H159.828V142.314Z" fill="#A8A8A8"/>
<path d="M157.692 144.276H153.432V158.448H157.692V144.276Z" fill="#A8A8A8"/>
<path d="M156.828 162.822C156.828 162.572 156.754 162.327 156.615 162.119C156.476 161.91 156.278 161.748 156.046 161.652C155.815 161.557 155.561 161.531 155.315 161.58C155.069 161.629 154.844 161.75 154.667 161.927C154.49 162.104 154.369 162.329 154.32 162.575C154.271 162.821 154.297 163.075 154.392 163.306C154.488 163.538 154.65 163.736 154.859 163.875C155.067 164.014 155.312 164.088 155.562 164.088C155.728 164.088 155.893 164.055 156.046 163.992C156.2 163.928 156.34 163.835 156.457 163.717C156.575 163.6 156.668 163.46 156.732 163.306C156.795 163.153 156.828 162.988 156.828 162.822Z" fill="#A8A8A8"/>
<path d="M139.428 142.314H130.902V166.158H139.428V142.314Z" fill="#A8A8A8"/>
<path d="M137.292 144.276H133.032V158.448H137.292V144.276Z" fill="#A8A8A8"/>
<path d="M136.428 162.822C136.428 162.572 136.354 162.327 136.215 162.119C136.076 161.91 135.878 161.748 135.646 161.652C135.415 161.557 135.161 161.531 134.915 161.58C134.669 161.629 134.444 161.75 134.267 161.927C134.09 162.104 133.969 162.329 133.92 162.575C133.871 162.821 133.897 163.075 133.992 163.306C134.088 163.538 134.25 163.736 134.459 163.875C134.667 164.014 134.912 164.088 135.162 164.088C135.328 164.088 135.493 164.055 135.646 163.992C135.8 163.928 135.94 163.835 136.057 163.717C136.175 163.6 136.268 163.46 136.332 163.306C136.395 163.153 136.428 162.988 136.428 162.822Z" fill="#A8A8A8"/>
<path d="M149.94 142.314H141.414V166.158H149.94V142.314Z" fill="#A8A8A8"/>
<path d="M147.804 144.276H143.544V158.448H147.804V144.276Z" fill="#A8A8A8"/>
<path d="M146.94 162.822C146.94 162.572 146.866 162.327 146.727 162.119C146.588 161.91 146.39 161.748 146.158 161.652C145.927 161.557 145.673 161.531 145.427 161.58C145.181 161.629 144.956 161.75 144.779 161.927C144.602 162.104 144.481 162.329 144.432 162.575C144.383 162.821 144.409 163.075 144.504 163.306C144.6 163.538 144.762 163.736 144.971 163.875C145.179 164.014 145.424 164.088 145.674 164.088C145.84 164.088 146.005 164.055 146.158 163.992C146.312 163.928 146.452 163.835 146.569 163.717C146.687 163.6 146.78 163.46 146.844 163.306C146.907 163.153 146.94 162.988 146.94 162.822Z" fill="#A8A8A8"/>
<path d="M59.826 171.516H51.3V195.36H59.826V171.516Z" fill="#A8A8A8"/>
<path d="M57.69 173.472H53.43V187.644H57.69V173.472Z" fill="#8C8C8C"/>
<path d="M55.566 193.284C56.2652 193.284 56.832 192.717 56.832 192.018C56.832 191.319 56.2652 190.752 55.566 190.752C54.8668 190.752 54.3 191.319 54.3 192.018C54.3 192.717 54.8668 193.284 55.566 193.284Z" fill="#8C8C8C"/>
<path d="M72 171.516H63.474V195.36H72V171.516Z" fill="#A8A8A8"/>
<path d="M69.864 173.472H65.604V187.644H69.864V173.472Z" fill="#8C8C8C"/>
<path d="M67.74 193.284C68.4392 193.284 69.006 192.717 69.006 192.018C69.006 191.319 68.4392 190.752 67.74 190.752C67.0408 190.752 66.474 191.319 66.474 192.018C66.474 192.717 67.0408 193.284 67.74 193.284Z" fill="#8C8C8C"/>
<path d="M84.174 171.516H75.648V195.36H84.174V171.516Z" fill="#8C8C8C"/>
<path d="M82.038 173.472H77.778V187.644H82.038V173.472Z" fill="#A8A8A8"/>
<path d="M79.908 193.284C80.6072 193.284 81.174 192.717 81.174 192.018C81.174 191.319 80.6072 190.752 79.908 190.752C79.2088 190.752 78.642 191.319 78.642 192.018C78.642 192.717 79.2088 193.284 79.908 193.284Z" fill="#A8A8A8"/>
<path d="M96.348 171.516H87.822V195.36H96.348V171.516Z" fill="#A8A8A8"/>
<path d="M94.212 173.472H89.952V187.644H94.212V173.472Z" fill="#8C8C8C"/>
<path d="M92.082 193.284C92.7812 193.284 93.348 192.717 93.348 192.018C93.348 191.319 92.7812 190.752 92.082 190.752C91.3828 190.752 90.816 191.319 90.816 192.018C90.816 192.717 91.3828 193.284 92.082 193.284Z" fill="#8C8C8C"/>
<path d="M47.766 102.6H45.234V226.308H47.766V102.6Z" fill="#A8A8A8"/>
<path d="M106.98 102.6H104.448V226.308H106.98V102.6Z" fill="#A8A8A8"/>
<path d="M110.208 109.026H40.974V110.754H110.208V109.026Z" fill="#A8A8A8"/>
<path d="M110.208 137.706H40.974V139.434H110.208V137.706Z" fill="#A8A8A8"/>
<path d="M110.208 166.392H40.974V168.12H110.208V166.392Z" fill="#A8A8A8"/>
<path d="M110.208 195.072H40.974V196.8H110.208V195.072Z" fill="#A8A8A8"/>
<path d="M88.878 113.862H80.352V137.706H88.878V113.862Z" fill="#8C8C8C"/>
<path d="M86.742 115.818H82.482V129.99H86.742V115.818Z" fill="#A8A8A8"/>
<path d="M85.884 134.364C85.884 134.112 85.8094 133.867 85.6696 133.657C85.5299 133.448 85.3312 133.285 85.0988 133.189C84.8663 133.093 84.6106 133.067 84.3638 133.116C84.1171 133.166 83.8905 133.287 83.7126 133.465C83.5347 133.642 83.4135 133.869 83.3644 134.116C83.3154 134.363 83.3405 134.618 83.4368 134.851C83.5331 135.083 83.6961 135.282 83.9053 135.422C84.1145 135.561 84.3604 135.636 84.612 135.636C84.9494 135.636 85.2729 135.502 85.5114 135.263C85.75 135.025 85.884 134.701 85.884 134.364Z" fill="#A8A8A8"/>
<path d="M78.876 113.862H70.35V137.706H78.876V113.862Z" fill="#A8A8A8"/>
<path d="M76.74 115.818H72.48V129.99H76.74V115.818Z" fill="#8C8C8C"/>
<path d="M74.616 135.63C75.3152 135.63 75.882 135.063 75.882 134.364C75.882 133.665 75.3152 133.098 74.616 133.098C73.9168 133.098 73.35 133.665 73.35 134.364C73.35 135.063 73.9168 135.63 74.616 135.63Z" fill="#8C8C8C"/>
<path d="M68.88 113.862H60.354V137.706H68.88V113.862Z" fill="#A8A8A8"/>
<path d="M66.744 115.818H62.484V129.99H66.744V115.818Z" fill="#8C8C8C"/>
<path d="M64.614 135.63C65.3132 135.63 65.88 135.063 65.88 134.364C65.88 133.665 65.3132 133.098 64.614 133.098C63.9148 133.098 63.348 133.665 63.348 134.364C63.348 135.063 63.9148 135.63 64.614 135.63Z" fill="#8C8C8C"/>
<path d="M100.626 113.862H92.1V137.706H100.626V113.862Z" fill="#A8A8A8"/>
<path d="M98.49 115.818H94.23V129.99H98.49V115.818Z" fill="#8C8C8C"/>
<path d="M96.366 135.63C97.0652 135.63 97.632 135.063 97.632 134.364C97.632 133.665 97.0652 133.098 96.366 133.098C95.6668 133.098 95.1 133.665 95.1 134.364C95.1 135.063 95.6668 135.63 96.366 135.63Z" fill="#8C8C8C"/>
<path d="M76.458 100.692V109.218H100.302V100.692H76.458Z" fill="#A8A8A8"/>
<path d="M78.42 102.822V107.082H92.592V102.822H78.42Z" fill="#8C8C8C"/>
<path d="M96.966 103.686C96.7142 103.685 96.4677 103.758 96.2577 103.897C96.0477 104.036 95.8838 104.235 95.7866 104.467C95.6894 104.699 95.6633 104.955 95.7117 105.202C95.7601 105.45 95.8808 105.677 96.0584 105.855C96.2361 106.034 96.4627 106.156 96.7096 106.205C96.9565 106.255 97.2126 106.23 97.4454 106.134C97.6782 106.038 97.8772 105.875 98.0172 105.665C98.1573 105.456 98.232 105.21 98.232 104.958C98.232 104.622 98.0988 104.299 97.8616 104.061C97.6243 103.822 97.3023 103.688 96.966 103.686Z" fill="#8C8C8C"/>
<path d="M75.57 92.316V100.842H99.414V92.316H75.57Z" fill="#A8A8A8"/>
<path d="M77.526 94.446V98.706H91.698V94.446H77.526Z" fill="#8C8C8C"/>
<path d="M96.072 95.31C95.8216 95.31 95.5768 95.3843 95.3687 95.5234C95.1605 95.6625 94.9982 95.8602 94.9024 96.0915C94.8065 96.3229 94.7815 96.5774 94.8303 96.823C94.8792 97.0686 94.9998 97.2942 95.1768 97.4712C95.3539 97.6483 95.5794 97.7688 95.825 97.8177C96.0706 97.8665 96.3251 97.8415 96.5565 97.7456C96.7878 97.6498 96.9855 97.4875 97.1246 97.2794C97.2638 97.0712 97.338 96.8264 97.338 96.576C97.3388 96.4095 97.3066 96.2445 97.2433 96.0906C97.1799 95.9366 97.0867 95.7968 96.969 95.679C96.8513 95.5613 96.7114 95.4681 96.5574 95.4048C96.4035 95.3414 96.2385 95.3092 96.072 95.31Z" fill="#8C8C8C"/>
<path d="M58.23 113.862H49.704V137.706H58.23V113.862Z" fill="#A8A8A8"/>
<path d="M56.094 115.818H51.834V129.99H56.094V115.818Z" fill="#8C8C8C"/>
<path d="M53.964 135.63C54.6632 135.63 55.23 135.063 55.23 134.364C55.23 133.665 54.6632 133.098 53.964 133.098C53.2648 133.098 52.698 133.665 52.698 134.364C52.698 135.063 53.2648 135.63 53.964 135.63Z" fill="#8C8C8C"/>
<path d="M100.626 142.314H92.1V166.158H100.626V142.314Z" fill="#A8A8A8"/>
<path d="M98.49 144.276H94.23V158.448H98.49V144.276Z" fill="#8C8C8C"/>
<path d="M97.632 162.822C97.6332 162.57 97.5594 162.323 97.4201 162.113C97.2808 161.903 97.0822 161.739 96.8496 161.642C96.6169 161.545 96.3606 161.519 96.1133 161.568C95.866 161.617 95.6388 161.738 95.4606 161.917C95.2823 162.095 95.1611 162.322 95.1122 162.569C95.0633 162.817 95.089 163.073 95.186 163.306C95.283 163.538 95.447 163.737 95.6571 163.876C95.8672 164.015 96.1139 164.089 96.366 164.088C96.7013 164.086 97.0224 163.953 97.2595 163.715C97.4965 163.478 97.6304 163.157 97.632 162.822Z" fill="#8C8C8C"/>
<path d="M90.738 142.314H82.212V166.158H90.738V142.314Z" fill="#8C8C8C"/>
<path d="M88.608 144.276H84.348V158.448H88.608V144.276Z" fill="#A8A8A8"/>
<path d="M87.744 162.822C87.744 162.572 87.6698 162.327 87.5306 162.119C87.3915 161.91 87.1938 161.748 86.9625 161.652C86.7312 161.557 86.4766 161.531 86.231 161.58C85.9854 161.629 85.7599 161.75 85.5828 161.927C85.4058 162.104 85.2852 162.329 85.2363 162.575C85.1875 162.821 85.2126 163.075 85.3084 163.306C85.4042 163.538 85.5665 163.736 85.7747 163.875C85.9828 164.014 86.2276 164.088 86.478 164.088C86.8133 164.086 87.1344 163.953 87.3715 163.715C87.6085 163.478 87.7424 163.157 87.744 162.822Z" fill="#A8A8A8"/>
<path d="M60.252 142.314H51.726V166.158H60.252V142.314Z" fill="#8C8C8C"/>
<path d="M58.122 144.276H53.862V158.448H58.122V144.276Z" fill="#A8A8A8"/>
<path d="M57.258 162.822C57.258 162.572 57.1838 162.327 57.0446 162.119C56.9055 161.91 56.7078 161.748 56.4765 161.652C56.2452 161.557 55.9906 161.531 55.745 161.58C55.4994 161.629 55.2739 161.75 55.0968 161.927C54.9198 162.104 54.7992 162.329 54.7503 162.575C54.7015 162.821 54.7266 163.075 54.8224 163.306C54.9182 163.538 55.0805 163.736 55.2887 163.875C55.4968 164.014 55.7416 164.088 55.992 164.088C56.3273 164.086 56.6484 163.953 56.8855 163.715C57.1225 163.478 57.2564 163.157 57.258 162.822Z" fill="#A8A8A8"/>
<path d="M70.338 142.314H61.812V166.158H70.338V142.314Z" fill="#8C8C8C"/>
<path d="M68.208 144.276H63.948V158.448H68.208V144.276Z" fill="#A8A8A8"/>
<path d="M67.344 162.822C67.344 162.572 67.2698 162.327 67.1306 162.119C66.9915 161.91 66.7938 161.748 66.5625 161.652C66.3312 161.557 66.0766 161.531 65.831 161.58C65.5854 161.629 65.3599 161.75 65.1828 161.927C65.0058 162.104 64.8852 162.329 64.8363 162.575C64.7875 162.821 64.8126 163.075 64.9084 163.306C65.0042 163.538 65.1665 163.736 65.3747 163.875C65.5828 164.014 65.8276 164.088 66.078 164.088C66.4133 164.086 66.7344 163.953 66.9715 163.715C67.2085 163.478 67.3424 163.157 67.344 162.822Z" fill="#A8A8A8"/>
<path d="M80.85 142.314H72.324V166.158H80.85V142.314Z" fill="#8C8C8C"/>
<path d="M78.72 144.276H74.46V158.448H78.72V144.276Z" fill="#A8A8A8"/>
<path d="M77.856 162.822C77.856 162.572 77.7818 162.327 77.6426 162.119C77.5035 161.91 77.3058 161.748 77.0745 161.652C76.8431 161.557 76.5886 161.531 76.343 161.58C76.0974 161.629 75.8719 161.75 75.6948 161.927C75.5178 162.104 75.3972 162.329 75.3483 162.575C75.2995 162.821 75.3246 163.075 75.4204 163.306C75.5162 163.538 75.6785 163.736 75.8867 163.875C76.0948 164.014 76.3396 164.088 76.59 164.088C76.9253 164.086 77.2464 163.953 77.4835 163.715C77.7205 163.478 77.8544 163.157 77.856 162.822Z" fill="#A8A8A8"/>
<path d="M74.364 226.548H61.578L59.658 205.35H76.284L74.364 226.548Z" fill="#426DDA" stroke="#263238" stroke-width="0.6" stroke-linecap="round" stroke-linejoin="round"/>
<path d="M76.254 204.582H59.682C59.1982 204.582 58.806 204.974 58.806 205.458V205.542C58.806 206.026 59.1982 206.418 59.682 206.418H76.254C76.7378 206.418 77.13 206.026 77.13 205.542V205.458C77.13 204.974 76.7378 204.582 76.254 204.582Z" fill="white" stroke="#263238" stroke-width="0.6" stroke-linecap="round" stroke-linejoin="round"/>
<path d="M60.468 174.99C60.723 174.416 61.107 173.909 61.59 173.508" stroke="#263238" stroke-width="0.6" stroke-linecap="round" stroke-linejoin="round"/>
<path d="M64.896 203.436C64.896 203.436 68.676 202.806 71.352 198.396C74.028 193.986 70.254 191.796 64.11 186.582C60.288 183.348 59.454 179.682 59.862 176.982" stroke="#263238" stroke-width="0.6" stroke-linecap="round" stroke-linejoin="round"/>
<path d="M72.942 202.716C74.3431 201.843 75.3532 200.463 75.762 198.864C76.554 195.864 75.45 192.408 71.04 189.576C66.63 186.744 64.266 185.976 62.22 183.276" stroke="#263238" stroke-width="0.6" stroke-linecap="round" stroke-linejoin="round"/>
<path d="M69.78 203.904C70.476 203.796 71.1542 203.594 71.796 203.304" stroke="#263238" stroke-width="0.6" stroke-linecap="round" stroke-linejoin="round"/>
<path d="M125.064 169.836C122.208 166.65 121.044 163.104 121.908 158.238C123.408 149.838 132.624 140.496 132.624 134.622C132.624 128.748 136.734 115.068 149.292 114.258C161.85 113.448 168.222 119.76 170.892 133.584C173.562 147.408 173.43 149.826 176.538 156.276C177.816 158.934 179.262 161.616 179.79 164.55C180.84 170.37 174.522 173.214 170.052 174.816C157.5 179.304 141.792 182.268 129.972 174.138C128.17 172.905 126.522 171.461 125.064 169.836Z" fill="#263238" stroke="#263238" stroke-width="0.6" stroke-linecap="round" stroke-linejoin="round"/>
<path d="M170.544 144.27C171.228 144.586 171.944 144.83 172.68 144.996" stroke="white" stroke-width="0.6" stroke-miterlimit="10" stroke-linecap="round"/>
<path d="M153.324 125.19C153.324 125.19 158.274 136.89 164.124 140.718C165.438 141.576 166.59 142.26 167.586 142.812" stroke="white" stroke-width="0.6" stroke-miterlimit="10" stroke-linecap="round"/>
<path d="M145.686 128.796C142.842 133.71 137.424 141.498 130.14 144.768" stroke="white" stroke-width="0.6" stroke-miterlimit="10" stroke-linecap="round"/>
<path d="M147.918 124.512C147.918 124.512 147.57 125.304 146.904 126.582" stroke="white" stroke-width="0.6" stroke-miterlimit="10" stroke-linecap="round"/>
<path d="M134.64 144.996C134.64 144.996 125.4 154.2 126.54 165" stroke="white" stroke-width="0.6" stroke-miterlimit="10" stroke-linecap="round"/>
<path d="M137.118 147C137.118 147 132.84 158.706 134.19 166.134" stroke="white" stroke-width="0.6" stroke-miterlimit="10" stroke-linecap="round"/>
<path d="M141.15 158.7C141.15 158.7 119.838 164.454 118.224 165.03C116.61 165.606 116.844 169.296 116.844 170.1C116.844 170.904 112.122 195.096 112.122 195.096C110.611 196.049 109.184 197.129 107.856 198.324C106.014 200.052 106.704 202.356 106.704 202.932C106.704 203.508 106.818 203.736 106.242 204.312C105.666 204.888 104.4 203.856 104.634 207.426C104.868 210.996 103.596 219.426 106.818 219.864C110.04 220.302 111.66 219.984 116.382 218.37C119.162 217.444 121.501 215.52 122.946 212.97V226.566H180.774C180.774 226.566 186.648 209.4 186.996 198.114C187.344 186.828 188.838 170.232 186.768 167.124C184.698 164.016 173.748 160.56 164.07 159.408C154.392 158.256 142.878 158.238 141.15 158.7Z" fill="#426DDA"/>
<mask id="mask0_8_4469" style="mask-type:luminance" maskUnits="userSpaceOnUse" x="104" y="158" width="84" height="69">
<path d="M141.15 158.7C141.15 158.7 119.838 164.454 118.224 165.03C116.61 165.606 116.844 169.296 116.844 170.1C116.844 170.904 112.122 195.096 112.122 195.096C110.611 196.049 109.184 197.129 107.856 198.324C106.014 200.052 106.704 202.356 106.704 202.932C106.704 203.508 106.818 203.736 106.242 204.312C105.666 204.888 104.4 203.856 104.634 207.426C104.868 210.996 103.596 219.426 106.818 219.864C110.04 220.302 111.66 219.984 116.382 218.37C119.162 217.444 121.501 215.52 122.946 212.97V226.566H180.774C180.774 226.566 186.648 209.4 186.996 198.114C187.344 186.828 188.838 170.232 186.768 167.124C184.698 164.016 173.748 160.56 164.07 159.408C154.392 158.256 142.878 158.238 141.15 158.7Z" fill="white"/>
</mask>
<g mask="url(#mask0_8_4469)">
<g style="mix-blend-mode:multiply" opacity="0.24">
<path d="M184.566 165.24C184.866 165.594 184.992 165.894 184.734 166.014C183.942 166.392 180.222 167.592 179.772 169.17C179.322 170.748 179.508 164.37 178.644 166.236C177.78 168.102 176.61 175.488 171.876 190.38C168.09 202.266 166.038 217.458 167.316 226.548H180.774C180.774 226.548 186.648 209.382 186.996 198.096C187.344 186.81 188.838 170.214 186.768 167.106C186.168 166.341 185.419 165.706 184.566 165.24Z" fill="black"/>
</g>
<path d="M141.954 155.472C141.148 156.016 140.509 156.774 140.112 157.662C139.308 159.27 132.51 171.828 131.934 172.404C131.358 172.98 135.042 172.866 136.542 172.176C138.042 171.486 140.802 171.486 140.802 171.486L143.454 173.556L151.632 176.784C151.632 176.784 155.316 174.132 157.158 172.638C159 171.144 159.81 170.562 159.81 170.562C161.41 171.103 162.953 171.799 164.418 172.638C166.26 173.79 165.57 174.366 166.26 173.79C166.95 173.214 166.608 172.062 165.66 170.448C164.712 168.834 161.862 159.966 158.286 156.648C154.71 153.33 146.214 152.244 141.954 155.472Z" fill="#426DDA" stroke="#263238" stroke-width="0.6" stroke-linecap="round" stroke-linejoin="round"/>
<path d="M158.658 184.158L174.558 184.272L174.21 188.766L166.032 192.912L158.658 188.88V184.158Z" fill="#426DDA" stroke="#263238" stroke-width="0.6" stroke-linecap="round" stroke-linejoin="round"/>
<path d="M122.946 182.772L138.846 182.886L138.498 187.38L130.32 191.526L122.946 187.494V182.772Z" fill="#426DDA" stroke="#263238" stroke-width="0.6" stroke-linecap="round" stroke-linejoin="round"/>
<g style="mix-blend-mode:multiply" opacity="0.24">
<path d="M123.138 217.23C123.138 217.23 122.238 183.162 122.916 179.322C123.594 175.482 118.854 163.98 119.076 170.076C119.298 176.172 120.876 185.358 121.008 187.644C121.14 189.93 115.692 188.802 116.142 191.736C116.592 194.67 119.742 194.664 120.66 199.182C121.578 203.7 113.886 203.466 113.886 205.95C113.886 208.434 116.598 211.812 114.342 213.846C112.086 215.88 110.814 213.156 110.814 213.156C111.617 215.296 111.771 217.625 111.258 219.852C113.005 219.493 114.723 219.007 116.4 218.4C119.18 217.474 121.519 215.55 122.964 213V217.896L123.138 217.23Z" fill="black"/>
</g>
</g>
<path d="M141.15 158.7C141.15 158.7 119.838 164.454 118.224 165.03C116.61 165.606 116.844 169.296 116.844 170.1C116.844 170.904 112.122 195.096 112.122 195.096C110.611 196.049 109.184 197.129 107.856 198.324C106.014 200.052 106.704 202.356 106.704 202.932C106.704 203.508 106.818 203.736 106.242 204.312C105.666 204.888 104.4 203.856 104.634 207.426C104.868 210.996 103.596 219.426 106.818 219.864C110.04 220.302 111.66 219.984 116.382 218.37C119.162 217.444 121.501 215.52 122.946 212.97V226.566H180.774C180.774 226.566 186.648 209.4 186.996 198.114C187.344 186.828 188.838 170.232 186.768 167.124C184.698 164.016 173.748 160.56 164.07 159.408C154.392 158.256 142.878 158.238 141.15 158.7Z" stroke="#263238" stroke-width="0.6" stroke-linecap="round" stroke-linejoin="round"/>
<path d="M122.946 193.254V213.186C122.946 213.186 121.908 200.514 119.148 197.286" stroke="#263238" stroke-width="0.6" stroke-linecap="round" stroke-linejoin="round"/>
<path d="M107.4 204C107.4 204 113.508 206.19 114.774 210.678C116.04 215.166 114.546 218.052 114.546 218.052" stroke="#263238" stroke-width="0.6" stroke-linecap="round" stroke-linejoin="round"/>
<path d="M100.092 211.554C100.092 211.554 104.55 209.526 104.892 209.154C105.234 208.782 109.158 208.968 110.796 213.144C112.434 217.32 111.246 219.324 110.43 219.774C109.614 220.224 105.336 221.472 104.154 221.472C102.972 221.472 98.004 213.102 100.092 211.554Z" fill="#426DDA" stroke="#263238" stroke-width="0.6" stroke-linecap="round" stroke-linejoin="round"/>
<path d="M142.644 157.548C142.644 157.548 140.688 226.386 141.492 226.386H155.55C155.55 226.386 155.664 176.208 156.582 171.486C157.5 166.764 159.696 158.352 159.348 156.048C159 153.744 143.34 155.01 143.34 155.01C142.987 155.818 142.753 156.673 142.644 157.548Z" fill="white"/>
<mask id="mask1_8_4469" style="mask-type:luminance" maskUnits="userSpaceOnUse" x="141" y="154" width="19" height="73">
<path d="M142.644 157.548C142.644 157.548 140.688 226.386 141.492 226.386H155.55C155.55 226.386 155.664 176.208 156.582 171.486C157.5 166.764 159.696 158.352 159.348 156.048C159 153.744 143.34 155.01 143.34 155.01C142.987 155.818 142.753 156.673 142.644 157.548Z" fill="white"/>
</mask>
<g mask="url(#mask1_8_4469)">
<path d="M142.644 157.548C142.644 157.548 140.688 226.386 141.492 226.386H155.55C155.55 226.386 155.664 176.208 156.582 171.486C157.5 166.764 159.696 158.352 159.348 156.048C159 153.744 143.34 155.01 143.34 155.01C142.987 155.818 142.753 156.673 142.644 157.548Z" fill="#426DDA"/>
<path opacity="0.7" d="M142.644 157.548C142.644 157.548 140.688 226.386 141.492 226.386H155.55C155.55 226.386 155.664 176.208 156.582 171.486C157.5 166.764 159.696 158.352 159.348 156.048C159 153.744 143.34 155.01 143.34 155.01C142.987 155.818 142.753 156.673 142.644 157.548Z" fill="white"/>
</g>
<path d="M142.644 157.548C142.644 157.548 140.688 226.386 141.492 226.386H155.55C155.55 226.386 155.664 176.208 156.582 171.486C157.5 166.764 159.696 158.352 159.348 156.048C159 153.744 143.34 155.01 143.34 155.01C142.987 155.818 142.753 156.673 142.644 157.548Z" stroke="#263238" stroke-width="0.6" stroke-linecap="round" stroke-linejoin="round"/>
<path d="M156.498 172.056C151.887 173.538 146.956 173.719 142.248 172.578C141.72 193.158 140.928 226.386 141.492 226.386H155.55C155.55 226.386 155.658 179.358 156.498 172.056Z" fill="white"/>
<mask id="mask2_8_4469" style="mask-type:luminance" maskUnits="userSpaceOnUse" x="141" y="172" width="16" height="55">
<path d="M156.498 172.056C151.887 173.538 146.956 173.719 142.248 172.578C141.72 193.158 140.928 226.386 141.492 226.386H155.55C155.55 226.386 155.658 179.358 156.498 172.056Z" fill="white"/>
</mask>
<g mask="url(#mask2_8_4469)">
<path d="M155.58 219.39C155.58 217.506 155.58 215.376 155.616 213.09H141.378C141.378 215.394 141.324 217.518 141.312 219.39H155.58Z" fill="#263238"/>
<path d="M141.6 201.09C141.558 203.25 141.516 205.356 141.48 207.39H155.676C155.676 205.332 155.712 203.22 155.736 201.09H141.6Z" fill="#263238"/>
<path d="M141.846 189.09C141.798 191.184 141.75 193.29 141.708 195.39H155.79C155.82 193.242 155.85 191.124 155.886 189.09H141.846Z" fill="#263238"/>
<path d="M142.134 177.09C142.086 179.112 142.032 181.224 141.978 183.39H156C156.054 181.032 156.12 178.896 156.192 177.09H142.134Z" fill="#263238"/>
</g>
<path d="M156.498 172.056C151.887 173.538 146.956 173.719 142.248 172.578C141.72 193.158 140.928 226.386 141.492 226.386H155.55C155.55 226.386 155.658 179.358 156.498 172.056Z" stroke="#263238" stroke-width="0.6" stroke-linecap="round" stroke-linejoin="round"/>
<path d="M149.328 127.8C149.328 127.8 147.252 134.364 138.27 140.244C138.27 140.244 137.67 148.422 140.112 154.524C142.554 160.626 148.98 165.468 151.746 164.892C154.512 164.316 159.924 158.094 161.766 153.72C163.608 149.346 163.614 141.51 163.614 141.51C163.614 141.51 154.278 135.426 149.328 127.8Z" fill="white" stroke="#263238" stroke-width="0.6" stroke-linecap="round" stroke-linejoin="round"/>
<path d="M148.638 150.06C148.638 150.06 148.404 153.858 148.98 154.206C149.556 154.554 150.594 154.434 150.708 153.168" stroke="#263238" stroke-width="0.6" stroke-linecap="round" stroke-linejoin="round"/>
<path d="M147.486 156.6C147.486 156.6 151.056 157.29 153.012 156.138" stroke="#263238" stroke-width="0.6" stroke-linecap="round" stroke-linejoin="round"/>
<path d="M147.414 138.69C147.414 138.69 142.578 137.4 140.502 141" stroke="#263238" stroke-width="0.6" stroke-linecap="round" stroke-linejoin="round"/>
<path d="M152.064 141.45C152.064 141.45 155.418 138.072 160.146 141.12" stroke="#263238" stroke-width="0.6" stroke-linecap="round" stroke-linejoin="round"/>
<path d="M141.84 145.908C141.84 145.908 144.03 147.984 147.6 146.508" stroke="#263238" stroke-width="0.6" stroke-linecap="round" stroke-linejoin="round"/>
<path d="M152.766 146.4C152.766 146.4 155.766 147.786 158.292 146.172" stroke="#263238" stroke-width="0.6" stroke-linecap="round" stroke-linejoin="round"/>
<path d="M144.102 151.668C146.773 151.668 148.938 149.503 148.938 146.832C148.938 144.161 146.773 141.996 144.102 141.996C141.431 141.996 139.266 144.161 139.266 146.832C139.266 149.503 141.431 151.668 144.102 151.668Z" stroke="#263238" stroke-width="0.45" stroke-linecap="round" stroke-linejoin="round"/>
<path d="M155.646 151.668C158.317 151.668 160.482 149.503 160.482 146.832C160.482 144.161 158.317 141.996 155.646 141.996C152.975 141.996 150.81 144.161 150.81 146.832C150.81 149.503 152.975 151.668 155.646 151.668Z" stroke="#263238" stroke-width="0.45" stroke-linecap="round" stroke-linejoin="round"/>
<path d="M148.938 146.832H150.804" stroke="#263238" stroke-width="0.45" stroke-linecap="round" stroke-linejoin="round"/>
<path d="M160.482 146.832H163.314" stroke="#263238" stroke-width="0.45" stroke-linecap="round" stroke-linejoin="round"/>
<path d="M137.97 146.832H139.254" stroke="#263238" stroke-width="0.45" stroke-linecap="round" stroke-linejoin="round"/>
<path d="M145.92 147.132C145.92 147.132 147.15 147.186 145.998 147.612C144.846 148.038 143.682 147.828 142.488 146.814C142.488 146.814 144.774 147.114 145.92 147.132Z" fill="#263238" stroke="#263238" stroke-width="0.6" stroke-linecap="round" stroke-linejoin="round"/>
<path d="M154.26 146.844C154.26 146.844 153.06 146.736 154.122 147.306C155.184 147.876 156.39 147.828 157.722 146.97C157.704 147 155.4 147 154.26 146.844Z" fill="#263238" stroke="#263238" stroke-width="0.6" stroke-linecap="round" stroke-linejoin="round"/>
<path d="M172.482 186.918L170.64 167.91C170.64 167.91 166.722 167.106 165.342 166.182C163.962 165.258 162.342 164.112 162.342 164.112C162.342 164.112 161.424 164.916 160.734 164.112C160.044 163.308 157.854 161.712 157.506 160.422C157.158 159.132 159.582 157.422 161.076 155.358C162.57 153.294 164.19 151.326 165.342 151.44C166.494 151.554 171.444 156.6 174 160.542C176.556 164.484 177.57 165.492 177.684 166.878C177.798 168.264 180.084 175.278 180.084 175.278L180.684 187.146L172.482 186.918Z" fill="white" stroke="#263238" stroke-width="0.6" stroke-linecap="round" stroke-linejoin="round"/>
<path d="M162.342 164.112C162.342 164.112 160.074 161.874 160.074 161.202" stroke="#263238" stroke-width="0.6" stroke-linecap="round" stroke-linejoin="round"/>
<path d="M168.564 175.92L170.754 188.13L173.154 174.534L182.484 173.502C182.484 173.502 182.4 188.016 182.4 191.7C182.4 195.384 184.014 212.208 184.476 218.1C184.938 223.992 181.824 225.9 177.564 226.044C173.304 226.188 169.842 222.246 168.462 214.296C167.082 206.346 168.69 191.832 168 189.414C167.31 186.996 164.4 177.09 164.4 177.09L168.564 175.92Z" fill="#426DDA"/>
<mask id="mask3_8_4469" style="mask-type:luminance" maskUnits="userSpaceOnUse" x="164" y="173" width="21" height="54">
<path d="M168.564 175.92L170.754 188.13L173.154 174.534L182.484 173.502C182.484 173.502 182.4 188.016 182.4 191.7C182.4 195.384 184.014 212.208 184.476 218.1C184.938 223.992 181.824 225.9 177.564 226.044C173.304 226.188 169.842 222.246 168.462 214.296C167.082 206.346 168.69 191.832 168 189.414C167.31 186.996 164.4 177.09 164.4 177.09L168.564 175.92Z" fill="white"/>
</mask>
<g mask="url(#mask3_8_4469)">
<g style="mix-blend-mode:multiply" opacity="0.24">
<path d="M179.028 225.9C182.502 225.384 184.866 223.254 184.464 218.1C184.002 212.226 182.388 195.408 182.388 191.7C182.388 187.992 182.502 173.502 182.502 173.502L180.99 173.67C180.12 176.568 175.272 193.578 177.738 205.722C180.45 219.036 182.706 220.386 179.094 225.804L179.028 225.9Z" fill="black"/>
</g>
</g>
<path d="M168.564 175.92L170.754 188.13L173.154 174.534L182.484 173.502C182.484 173.502 182.4 188.016 182.4 191.7C182.4 195.384 184.014 212.208 184.476 218.1C184.938 223.992 181.824 225.9 177.564 226.044C173.304 226.188 169.842 222.246 168.462 214.296C167.082 206.346 168.69 191.832 168 189.414C167.31 186.996 164.4 177.09 164.4 177.09L168.564 175.92Z" stroke="#263238" stroke-width="0.6" stroke-linecap="round" stroke-linejoin="round"/>
<path d="M95.322 223.5C95.322 223.5 95.046 225.354 96.726 225.774C98.406 226.194 102.444 225.144 102.78 224.28C102.88 224.043 102.908 223.782 102.861 223.529C102.814 223.277 102.694 223.043 102.516 222.858H98.832C98.832 222.858 96.054 222 95.322 223.5Z" fill="white" stroke="#263238" stroke-width="0.6" stroke-linecap="round" stroke-linejoin="round"/>
<path d="M78.828 203.508L94.098 214.116L95.238 212.598L79.896 201.9L78.828 203.508Z" fill="#263238" stroke="#263238" stroke-width="0.6" stroke-linecap="round" stroke-linejoin="round"/>
<path d="M82.374 205.968L83.562 204.456L79.896 201.9L78.828 203.508L82.374 205.968Z" fill="white" stroke="#263238" stroke-width="0.6" stroke-linecap="round" stroke-linejoin="round"/>
<path d="M97.716 223.338C100.106 223.225 102.381 222.276 104.142 220.656C106.878 217.992 107.064 216.21 103.368 212.382C99.672 208.554 91.59 213.036 91.332 214.728C91.074 216.42 97.716 223.338 97.716 223.338Z" fill="white" stroke="#263238" stroke-width="0.6" stroke-linecap="round" stroke-linejoin="round"/>
<path d="M105.894 216.42C105.894 216.42 104.85 218.598 103.86 219.42C102.87 220.242 101.298 220.464 100.368 219.138C99.438 217.812 98.484 213.696 97.674 213.612C96.864 213.528 92.826 212.202 91.674 210.612C90.522 209.022 90.582 207.792 93.12 208.548C95.658 209.304 102.45 210.186 102.45 210.186C102.45 210.186 104.058 211.152 105.174 214.542" fill="white"/>
<path d="M105.894 216.42C105.894 216.42 104.85 218.598 103.86 219.42C102.87 220.242 101.298 220.464 100.368 219.138C99.438 217.812 98.484 213.696 97.674 213.612C96.864 213.528 92.826 212.202 91.674 210.612C90.522 209.022 90.582 207.792 93.12 208.548C95.658 209.304 102.45 210.186 102.45 210.186C102.45 210.186 104.058 211.152 105.174 214.542" stroke="#263238" stroke-width="0.6" stroke-linecap="round" stroke-linejoin="round"/>
<path d="M92.832 221.52C93.192 221.964 94.374 223.974 94.932 224.112C95.49 224.25 98.916 222.072 100.236 220.41C101.556 218.748 99.096 216.444 98.394 216.12C97.692 215.796 92.832 221.52 92.832 221.52Z" fill="white" stroke="#263238" stroke-width="0.6" stroke-linecap="round" stroke-linejoin="round"/>
<path d="M91.086 215.52C91.086 215.52 88.086 217.32 88.8 218.556C89.514 219.792 91.914 221.67 92.682 221.34C93.45 221.01 98.622 218.604 98.598 217.29C98.574 215.976 98.49 214.41 95.844 214.626C94.2317 214.761 92.6374 215.061 91.086 215.52Z" fill="white" stroke="#263238" stroke-width="0.6" stroke-linecap="round" stroke-linejoin="round"/>
<path d="M88.086 210.534C88.086 210.534 86.628 213.498 87.966 214.782C89.304 216.066 97.566 216.036 97.986 214.524C98.406 213.012 95.31 212.688 93.036 211.71C90.762 210.732 88.404 209.832 88.086 210.534Z" fill="white" stroke="#263238" stroke-width="0.6" stroke-linecap="round" stroke-linejoin="round"/>
<path d="M120.126 225.972C120.126 225.972 119.898 222.054 116.442 220.674C112.986 219.294 111.138 219.864 103.422 221.94C98.5593 223.212 93.5795 223.984 88.56 224.244V225.972H120.126Z" fill="white" stroke="#263238" stroke-width="0.6" stroke-linecap="round" stroke-linejoin="round"/>
<path d="M120 225.972C120 225.972 120.228 222.054 123.684 220.674C127.14 219.294 128.982 219.864 136.704 221.94C141.565 223.212 146.542 223.984 151.56 224.244V225.972H120Z" fill="white" stroke="#263238" stroke-width="0.6" stroke-linecap="round" stroke-linejoin="round"/>
<path d="M152.844 225.282H87.756V226.548H152.844V225.282Z" fill="#263238" stroke="#263238" stroke-width="0.6" stroke-linecap="round" stroke-linejoin="round"/>
<path d="M49.8 226.548H258.996" stroke="#263238" stroke-width="0.6" stroke-linecap="round" stroke-linejoin="round"/>
<path d="M256.596 191.76H212.244L197.154 226.662H241.506L256.596 191.76Z" fill="white" stroke="#263238" stroke-width="0.6" stroke-linecap="round" stroke-linejoin="round"/>
<path d="M258.324 191.76H213.972L198.882 226.662H243.234L258.324 191.76Z" fill="#263238" stroke="#263238" stroke-width="0.6" stroke-linecap="round" stroke-linejoin="round"/>
<path d="M232.152 213C231.012 214.8 228.876 215.508 227.382 214.56C225.888 213.612 225.582 211.386 226.734 209.58C227.886 207.774 230.01 207.078 231.534 208.02C233.058 208.962 233.292 211.2 232.152 213Z" fill="white" stroke="#426DDA" stroke-width="0.6" stroke-linecap="round" stroke-linejoin="round"/>
<path d="M197.73 225.282H165.36V226.548H197.73V225.282Z" fill="white" stroke="#263238" stroke-width="0.6" stroke-linecap="round" stroke-linejoin="round"/>
</svg>
